<?xml version="1.0" encoding="UTF-8"?>
<svg id="Capa_2" data-name="Capa 2" xmlns="http://www.w3.org/2000/svg" viewBox="0 0 158.36 87.83">
  <defs>
    <style>
      .cls-1 {
        fill: #32509d;
      }
    </style>
  </defs>
  <g id="_2-Texto" data-name="2-Texto">
    <g>
      <g>
        <path class="cls-1" d="M0,53.84h9.93v2.21H2.73v4.13h6.77v2.21H2.73v6.6H0v-15.16Z"/>
        <path class="cls-1" d="M13.69,68.5c-.81-.44-1.44-1.08-1.88-1.91-.44-.83-.67-1.8-.67-2.9s.22-2.07.67-2.89c.44-.82,1.07-1.46,1.88-1.9.81-.44,1.75-.67,2.83-.67s2.02.22,2.83.67c.81.44,1.43,1.08,1.87,1.9.44.82.66,1.79.66,2.89s-.22,2.07-.66,2.9c-.44.83-1.06,1.47-1.87,1.91-.81.44-1.75.67-2.83.67s-2.02-.22-2.83-.67ZM18.49,66.22c.46-.57.69-1.42.69-2.54s-.23-1.95-.69-2.53-1.12-.87-1.98-.87-1.52.29-1.99.87-.7,1.42-.7,2.53.23,1.96.69,2.54c.46.57,1.12.86,1.98.86s1.54-.29,2-.86Z"/>
        <path class="cls-1" d="M33.01,59.3c.62.72.92,1.8.92,3.25v6.45h-2.69v-6.3c0-.82-.15-1.41-.46-1.78-.31-.37-.79-.56-1.45-.56-.77,0-1.39.24-1.86.73s-.7,1.14-.7,1.96v5.96h-2.69v-10.51h2.62v1.57c.36-.59.84-1.04,1.44-1.35.6-.32,1.28-.47,2.04-.47,1.26,0,2.2.36,2.82,1.08Z"/>
        <path class="cls-1" d="M46.81,53.84v15.16h-2.67v-1.7c-.32.59-.77,1.05-1.37,1.38-.6.33-1.27.49-2.03.49-.9,0-1.71-.23-2.42-.69s-1.26-1.11-1.66-1.95c-.39-.84-.59-1.8-.59-2.89s.2-2.04.59-2.86c.39-.82.94-1.45,1.65-1.89.7-.44,1.51-.67,2.43-.67.76,0,1.43.16,2.02.47.59.32,1.04.76,1.35,1.33v-6.19h2.69ZM43.45,66.2c.47-.59.7-1.43.7-2.52s-.23-1.92-.7-2.51-1.12-.87-1.97-.87-1.53.29-2,.86c-.47.57-.71,1.4-.71,2.47s.24,1.94.71,2.54c.47.6,1.13.9,1.98.9s1.52-.29,1.99-.88Z"/>
        <path class="cls-1" d="M51.55,68.5c-.81-.44-1.44-1.08-1.88-1.91-.44-.83-.67-1.8-.67-2.9s.22-2.07.67-2.89c.44-.82,1.07-1.46,1.88-1.9.81-.44,1.75-.67,2.83-.67s2.02.22,2.83.67c.81.44,1.43,1.08,1.87,1.9.44.82.66,1.79.66,2.89s-.22,2.07-.66,2.9c-.44.83-1.06,1.47-1.87,1.91-.81.44-1.75.67-2.83.67s-2.02-.22-2.83-.67ZM56.36,66.22c.46-.57.69-1.42.69-2.54s-.23-1.95-.69-2.53c-.46-.58-1.12-.87-1.98-.87s-1.52.29-1.99.87-.7,1.42-.7,2.53.23,1.96.69,2.54c.46.57,1.12.86,1.98.86s1.54-.29,2-.86Z"/>
        <path class="cls-1" d="M70.99,68.23c-1.11-.64-1.96-1.54-2.56-2.72s-.89-2.54-.89-4.11.3-2.93.89-4.1c.6-1.17,1.45-2.07,2.56-2.71,1.11-.64,2.41-.96,3.9-.96,1.02,0,1.98.16,2.88.47s1.66.76,2.28,1.33l-.93,2.02c-.69-.54-1.37-.94-2.04-1.19s-1.39-.38-2.15-.38c-1.46,0-2.59.47-3.39,1.42-.8.95-1.19,2.31-1.19,4.09s.4,3.16,1.19,4.11c.8.95,1.92,1.42,3.39,1.42.76,0,1.48-.12,2.15-.38.67-.25,1.36-.65,2.04-1.19l.93,2.02c-.62.57-1.38,1.02-2.28,1.33-.9.32-1.86.47-2.88.47-1.49,0-2.79-.32-3.9-.96Z"/>
        <path class="cls-1" d="M84.11,68.5c-.81-.44-1.44-1.08-1.88-1.91-.44-.83-.67-1.8-.67-2.9s.22-2.07.67-2.89c.44-.82,1.07-1.46,1.88-1.9.81-.44,1.75-.67,2.83-.67s2.02.22,2.83.67c.81.44,1.43,1.08,1.87,1.9.44.82.66,1.79.66,2.89s-.22,2.07-.66,2.9c-.44.83-1.06,1.47-1.87,1.91-.81.44-1.75.67-2.83.67s-2.02-.22-2.83-.67ZM88.91,66.22c.46-.57.69-1.42.69-2.54s-.23-1.95-.69-2.53-1.12-.87-1.98-.87-1.52.29-1.99.87-.7,1.42-.7,2.53.23,1.96.69,2.54c.46.57,1.12.86,1.98.86s1.54-.29,2-.86Z"/>
        <path class="cls-1" d="M94.5,53.84h2.69v15.16h-2.69v-15.16Z"/>
        <path class="cls-1" d="M101.93,68.5c-.81-.44-1.44-1.08-1.88-1.91-.44-.83-.67-1.8-.67-2.9s.22-2.07.67-2.89c.44-.82,1.07-1.46,1.88-1.9.81-.44,1.75-.67,2.83-.67s2.02.22,2.83.67c.81.44,1.43,1.08,1.87,1.9.44.82.66,1.79.66,2.89s-.22,2.07-.66,2.9c-.44.83-1.06,1.47-1.87,1.91-.81.44-1.75.67-2.83.67s-2.02-.22-2.83-.67ZM106.74,66.22c.46-.57.69-1.42.69-2.54s-.23-1.95-.69-2.53c-.46-.58-1.12-.87-1.98-.87s-1.52.29-1.99.87-.7,1.42-.7,2.53.23,1.96.69,2.54c.46.57,1.12.86,1.98.86s1.54-.29,2-.86Z"/>
        <path class="cls-1" d="M127.49,59.29c.59.71.88,1.8.88,3.26v6.45h-2.69v-6.34c0-.8-.14-1.39-.41-1.75s-.71-.55-1.31-.55c-.72,0-1.28.24-1.68.73-.4.49-.6,1.17-.6,2.04v5.87h-2.69v-6.34c0-.8-.13-1.39-.4-1.75s-.71-.55-1.32-.55c-.7,0-1.26.24-1.66.73-.4.49-.6,1.17-.6,2.04v5.87h-2.69v-10.51h2.62v1.48c.32-.57.75-1.01,1.31-1.3.56-.29,1.2-.44,1.91-.44,1.59,0,2.64.66,3.16,1.98.33-.62.8-1.1,1.42-1.45.62-.35,1.3-.53,2.06-.53,1.19,0,2.08.35,2.67,1.06Z"/>
        <path class="cls-1" d="M139.57,58.89c.7.44,1.25,1.08,1.65,1.89.39.82.59,1.77.59,2.86s-.2,2.05-.59,2.89c-.39.84-.95,1.49-1.66,1.95-.71.46-1.52.69-2.42.69-.76,0-1.44-.16-2.03-.49-.6-.33-1.05-.79-1.37-1.38v1.7h-2.64v-15.16h2.69v6.17c.31-.57.77-1.01,1.35-1.32.59-.31,1.25-.46,2-.46.92,0,1.73.22,2.43.67ZM138.41,66.18c.47-.6.71-1.45.71-2.54s-.23-1.9-.7-2.47c-.47-.57-1.13-.86-1.99-.86s-1.52.29-1.99.87c-.47.58-.7,1.42-.7,2.51s.23,1.93.7,2.52c.47.59,1.13.88,1.99.88s1.5-.3,1.98-.9Z"/>
        <path class="cls-1" d="M146.84,53.6v2.64h-2.97v-2.64h2.97ZM144.02,58.48h2.69v10.51h-2.69v-10.51Z"/>
        <path class="cls-1" d="M157.29,59.3c.72.72,1.07,1.82,1.07,3.31v6.39h-2.56v-1.61c-.24.56-.63,1-1.15,1.31-.52.31-1.13.47-1.82.47s-1.34-.14-1.91-.43c-.57-.29-1.02-.68-1.35-1.18-.33-.5-.49-1.06-.49-1.68,0-.77.2-1.38.59-1.83.39-.44,1.04-.77,1.92-.97.89-.2,2.11-.3,3.68-.3h.54v-.49c0-.72-.15-1.23-.46-1.55-.31-.31-.82-.47-1.54-.47-.56,0-1.14.1-1.75.29-.61.19-1.21.46-1.8.81l-.75-1.85c.59-.37,1.3-.68,2.13-.93.83-.24,1.62-.37,2.37-.37,1.48,0,2.57.36,3.29,1.08ZM155.13,66.51c.45-.48.68-1.1.68-1.86v-.45h-.39c-.96,0-1.71.04-2.24.13-.53.09-.91.24-1.14.45-.23.22-.34.51-.34.88,0,.46.16.84.47,1.13.31.29.72.44,1.2.44.72,0,1.3-.24,1.75-.72Z"/>
        <g>
          <path class="cls-1" d="M56.66,82.89h-7.16c.09.98.38,1.7.88,2.17.5.47,1.22.71,2.15.71,1.16,0,2.22-.37,3.18-1.12l.77,1.85c-.49.4-1.1.72-1.84.97-.74.24-1.48.37-2.23.37-1.72,0-3.08-.49-4.07-1.46-1-.97-1.49-2.31-1.49-4,0-1.07.21-2.03.64-2.86.43-.83,1.04-1.48,1.82-1.93.78-.46,1.67-.69,2.66-.69,1.45,0,2.59.47,3.43,1.4.84.93,1.26,2.21,1.26,3.85v.75ZM50.3,79.47c-.44.46-.71,1.12-.81,1.98h4.86c-.03-.87-.24-1.54-.64-1.99-.4-.45-.96-.68-1.68-.68s-1.29.23-1.73.69Z"/>
          <path class="cls-1" d="M67.77,77.96c.62.72.92,1.8.92,3.25v6.45h-2.69v-6.3c0-.82-.15-1.41-.46-1.78-.31-.37-.79-.56-1.45-.56-.77,0-1.39.24-1.86.73s-.7,1.14-.7,1.96v5.96h-2.69v-10.51h2.62v1.57c.36-.59.84-1.04,1.44-1.35.6-.32,1.28-.47,2.04-.47,1.26,0,2.2.36,2.82,1.08Z"/>
          <path class="cls-1" d="M77.49,72.5h6.62c1.62,0,2.88.41,3.78,1.21.9.81,1.35,1.95,1.35,3.41s-.45,2.6-1.35,3.42c-.9.82-2.16,1.23-3.78,1.23h-3.85v5.89h-2.77v-15.16ZM83.77,79.64c1.91,0,2.86-.83,2.86-2.49,0-.85-.24-1.47-.71-1.88s-1.19-.61-2.15-.61h-3.5v4.99h3.5Z"/>
          <path class="cls-1" d="M98.97,77.96c.72.72,1.07,1.82,1.07,3.31v6.39h-2.56v-1.61c-.24.56-.63,1-1.15,1.31-.52.31-1.13.47-1.82.47s-1.34-.14-1.91-.43c-.57-.29-1.02-.68-1.35-1.18-.33-.5-.49-1.06-.49-1.68,0-.77.2-1.38.59-1.83.39-.44,1.04-.77,1.92-.97.89-.2,2.11-.3,3.68-.3h.54v-.49c0-.72-.15-1.23-.46-1.55-.31-.31-.82-.47-1.54-.47-.56,0-1.14.1-1.75.29-.61.19-1.21.46-1.8.81l-.75-1.85c.59-.37,1.3-.68,2.13-.93.83-.24,1.62-.37,2.37-.37,1.48,0,2.57.36,3.29,1.08ZM96.81,85.18c.45-.48.68-1.1.68-1.86v-.45h-.39c-.96,0-1.71.04-2.24.13-.53.09-.91.24-1.14.45-.23.22-.34.51-.34.88,0,.46.16.84.47,1.13.31.29.72.44,1.2.44.72,0,1.3-.24,1.75-.72Z"/>
          <path class="cls-1" d="M111.55,85.64v2.02h-9.16v-1.87l5.72-6.62h-5.61v-2.02h8.84v1.83l-5.76,6.67h5.98Z"/>
        </g>
      </g>
      <g>
        <path class="cls-1" d="M80.92,22.15c.11.12.31.17.51.08.03.09.11.16.2.2.04.02.09.02.14.02.11,0,.22-.04.33-.13.13.19.45.24.79.24.19,0,.39-.02.56-.03.09,0,.18-.01.24-.02.42-.02.72-.11.95-.4.21.08.78.22,1.39-.62.17-.05,1.06-.38.91-1.34.13-.12.55-.57.31-1.14.03-.12.13-.55-.08-.75-.04-.09-.23-.49-.58-.56-.21-.04-.43.05-.65.27-.03.03-.13.13-.16.23-.2.11-.28.32-.3.39-.16.08-.25.24-.29.33-.28-.06-.6.01-.96.2-.24-.18-.51-.28-.81-.28h0c-.38,0-.76.17-1.06.5-.39.43-.58,1.06-.53,1.65-.08,0-.16.02-.23.07-.12.09-.2.24-.21.41h0s0,0,0,0c-.17,0-.31.04-.42.14-.19.21-.14.41-.04.52M85.29,19.12c.41.16.57.61.57.61l.15-.05s-.18-.53-.66-.71c0,0,0,0,0,0,.04-.09.13-.23.29-.26.16-.03.44.05.88.61l.13-.1c-.36-.46-.69-.68-.96-.67.04-.08.12-.18.25-.23.2-.08.46,0,.78.21l.09-.13c-.3-.2-.56-.29-.78-.27.01-.01.03-.03.04-.04.18-.18.35-.26.5-.23.29.06.47.48.47.48v.02s.02.01.02.01c.15.13.08.49.04.63v.03s0,.03,0,.03c.26.56-.26.99-.29,1l-.04.03v.05c.19.94-.76,1.2-.8,1.21h-.03s-.02.03-.02.03c-.48.67-.96.67-1.2.61.38-.62.4-1.52.03-2.24-.1-.2-.23-.37-.38-.51.35-.18.66-.22.93-.12M81.08,21.74c.09-.09.22-.1.29-.09.07.01.11-.01.13-.03.02-.02.05-.06.05-.12,0-.12.06-.23.15-.29.08-.06.2-.06.27,0l.15.12-.02-.19c0-.05.01-.09.05-.12.06-.06.18-.08.28-.06.07,0,.28.04.33.2l.06.19.09-.18c.1-.19.29-.26.43-.23.14.02.24.13.27.28l.16-.03c-.04-.23-.19-.38-.4-.42-.04,0-.08,0-.12,0,.05-.24.21-.84.69-.97.09.1.16.22.22.36.23.56.14,1.3-.21,1.72l.12.1c.39-.47.49-1.26.24-1.88-.18-.43-.49-.7-.89-.74-.32-.03-.63.11-.88.4-.23.27-.39.63-.44,1.02,0,.01,0,.05,0,.09-.02.01-.04.02-.06.04-.02.02-.03.03-.04.05-.04-.54.14-1.09.49-1.48.27-.3.6-.46.93-.45h0c.48,0,.91.3,1.18.81.35.68.33,1.54-.04,2.11-.14.28-.61.42-.88.42-.06,0-.15,0-.25.02-.38.03-1.09.09-1.22-.15l-.03-.04-.04-.12c-.11.13-.28.28-.45.22-.06-.02-.12-.09-.11-.17l.02-.18-.14.11c-.16.11-.33.09-.4,0-.07-.08-.06-.19.04-.3M82.25,20.79c.04-.36.18-.69.4-.94.22-.25.48-.37.75-.34.15.02.28.07.39.16-.55.22-.69.93-.72,1.13-.09.04-.17.09-.24.17-.08-.1-.22-.16-.39-.18-.06-.01-.12,0-.19,0"/>
        <path class="cls-1" d="M71.47,20.15c-.16.96.73,1.28.91,1.34.4.55.81.68,1.11.68.19,0,.34-.05.4-.08.15.04.29.06.44.06.18,0,.36-.03.52-.1.04.05.12.09.27.08.15,0,.33,0,.49-.08.06.06.15.09.28.09.26,0,.52-.02.72-.16.04.03.11.05.19.06.39.02.79.04,1.17-.01.09,0,.16-.05.18-.12.02-.07-.01-.16-.09-.21-.02-.01-.03-.02-.05-.03-.03-.02-.05-.03-.06-.05,0,0,0-.01,0-.02,0-.02-.02-.04-.04-.06l-.03-.02c-.12-.05-.28-.07-.43-.08-.07,0-.13-.01-.19-.02-.04-.15-.21-.25-.39-.27-.02,0-.04,0-.05,0,0,0-.02-.02-.02-.03,0,0-.01-.02-.02-.03-.06-.08-.14-.12-.23-.13.05-.58-.15-1.18-.53-1.6-.29-.32-.66-.5-1.03-.5,0,0-.02,0-.03,0-.3,0-.57.1-.81.28-.35-.19-.67-.26-.96-.2-.04-.09-.13-.25-.29-.33-.02-.07-.11-.28-.3-.39-.03-.09-.13-.2-.16-.23-.22-.22-.44-.31-.65-.27-.34.07-.54.47-.58.56-.21.2-.11.63-.08.75-.24.57.18,1.01.31,1.14M76.67,21.18v.02s.05.05.08.08c.04.03.09.03.13.03.11,0,.23.08.24.18v.06s.06.01.06.01c.08.02.17.02.26.03.13.01.27.03.36.06,0,0,0,0,0,.01,0,.01.01.02.02.03.03.05.08.08.12.1.01,0,.03.01.04.02.03.02.03.03.03.03,0,0-.01,0-.04,0-.38.05-.77.03-1.15.01-.08,0-.1-.02-.11-.03l-.04-.12-.09.08c-.17.15-.42.16-.69.17-.08,0-.16-.01-.17-.05l-.02-.12-.1.06c-.13.08-.29.1-.49.1-.09,0-.15-.02-.16-.05l-.03-.09-.08.04c-.09.04-.2.07-.31.09-.38-.39-.53-1.11-.33-1.71.04-.13.12-.31.26-.46.5.14.66.82.7,1.05h-.11s0,.16,0,.16l.75-.03c.07,0,.13,0,.17.02.07.07.15.1.22.1.04,0,.09,0,.14,0,.13,0,.26,0,.33.09M74.61,19.67c.11-.08.24-.14.4-.16.22-.03.45.06.66.26.3.28.48.72.48,1.15-.02-.01-.04-.03-.07-.05-.09-.06-.2-.06-.27-.05l-.48.02c-.03-.23-.19-.95-.72-1.16M74.98,19.01s0,0,0,0c.34,0,.67.15.93.45.35.38.53.94.49,1.47-.02,0-.05,0-.07,0-.01,0-.02,0-.03,0,0-.47-.19-.96-.53-1.28-.24-.23-.52-.33-.79-.3-.43.05-.77.36-.93.85-.18.54-.12,1.29.29,1.78-.17,0-.34-.02-.5-.06-.37-.57-.39-1.42-.04-2.1.27-.52.7-.81,1.18-.81M71.32,19c-.04-.13-.11-.5.04-.63h.01s0-.03,0-.03c0,0,.17-.42.47-.48.16-.03.32.05.5.23.01.01.03.03.04.04-.22-.02-.48.07-.78.27l.09.13c.32-.22.59-.29.78-.22.13.05.2.15.25.23-.28,0-.6.21-.96.67l.13.1c.44-.56.72-.64.88-.61.15.03.24.17.29.26,0,0,0,0,0,0-.48.18-.66.69-.66.71l.15.05s.16-.45.57-.61c.26-.1.57-.06.93.12-.15.14-.28.31-.38.51-.37.72-.35,1.62.03,2.24-.24.05-.73.05-1.2-.61l-.02-.02h-.03s-.99-.27-.81-1.21v-.05s-.03-.03-.03-.03c-.02-.02-.55-.44-.29-1v-.03s0-.03,0-.03Z"/>
        <path class="cls-1" d="M79.12,21.47c0,.27-.04.55-.08.85v.03s.01.03.01.03c0,0,.17.23.47.33l.09.03v-.1s.11-.75.03-1.53c.98-.3,1.28-1.29,1.37-1.7.05-.25.04-.26,0-.28l-.04-.03-.04.02c-.83.32-1.22.93-1.4,1.4-.06-.25-.15-.47-.26-.65.8-.08,1.43-.76,1.43-1.58,0-.46-.2-.88-.52-1.17l.4-.49-.75.09-.23-.38-.38.24-.3-.25-.16.31-.67-.26.18.55c-.52.3-.76.85-.76,1.37,0,.66.4,1.38,1.26,1.55.04.05.22.31.3.88-.28-.43-.78-.93-1.64-1.08h-.07s-.02.05-.02.05c-.02.07.17.51.37.82.26.4.72.89,1.4.96M79.6,20.85c.11-.41.41-1.14,1.27-1.53-.06.36-.33,1.37-1.3,1.65l.03-.12ZM80.21,16.83l-.15.18c-.07-.05-.14-.1-.22-.14l.36-.04ZM80.54,18.28c0,.64-.43,1.19-1.01,1.37.94-1.27.28-2.34-.06-2.75.62.16,1.07.72,1.07,1.38M79.55,16.55l.15.25c-.12-.05-.26-.08-.4-.1l.25-.15ZM78.98,16.57l.15.12s-.02,0-.02,0c-.07,0-.13,0-.19.02l.07-.14ZM78.65,16.76c-.08.02-.16.05-.24.08l-.07-.2.31.12ZM77.67,18.28c0-.59.35-1.23,1.12-1.39-.34.4-1.02,1.48-.08,2.77-.71-.19-1.04-.81-1.04-1.37M79.03,16.85s.05,0,.07,0c.04,0,.08,0,.12,0,.16.16,1.31,1.36.07,2.85-.06,0-.12.01-.18.01-.05,0-.11,0-.16-.01-1.23-1.5-.08-2.69.08-2.85M78.98,19.86s.07,0,.11,0c.17.24.29.56.35.97l.03.16v.07c.08.61.04,1.22.01,1.46-.14-.07-.24-.17-.28-.21.05-.32.08-.62.08-.91v-.08s0-.25,0-.25h0c-.04-.64-.19-1.02-.3-1.21M79.12,21.12l.09.2h0c-1.02-.07-1.52-1.14-1.66-1.5.94.21,1.39.9,1.58,1.3"/>
        <path class="cls-1" d="M73.69,6.35c-.07-.08-.07-.22-.02-.31.01-.03.03-.05.05-.07,0,0,0,0,.01-.01-.09.04-.23,0-.27-.1-.05-.12.02-.27.14-.32-.1.02-.19.07-.29.11-.1.03-.21.04-.29-.02-.08-.06-.09-.18-.05-.28.03-.09.11-.17.18-.24-.16.04-.3.19-.45.14-.16-.05-.17-.27-.09-.41s.23-.24.32-.37c-.24.11-.49.2-.75.26-.09.02-.2.04-.27-.02-.05-.04-.04-.13,0-.17l-.36.12c-.08.03-.17.06-.26.03-.08-.03-.15-.13-.1-.2-.13.08-.27.16-.42.14-.09,0-.16-.05-.2-.13-.05-.09-.01-.14.07-.2-.14.06-.29.23-.24.4.03.12.17.18.3.17.12-.01.23-.08.34-.14-.05.03.09.17.1.18.08.06.22.08.32.06.06-.01.12-.04.17-.07.02,0,.16-.08.16-.09,0,.08.11.1.19.1.16,0,.32,0,.48-.01-.11.1-.14.28-.07.42.07.13.25.2.39.16-.12.14-.02.38.15.44.15.05.32-.03.42-.15-.02.02-.03.04-.04.06-.01.02-.02.04-.03.07-.02.05-.03.1-.02.15,0,.04.03.09.05.12.02.03.05.06.09.08.02,0,.04.01.06.01.05,0,.09-.02.13-.05-.03.05-.06.09-.08.14-.02.05-.04.1-.05.15-.02.12.09.23.21.25.07,0,.14,0,.2-.04.13-.08.21-.22.27-.37-.1.14-.34.14-.45.01"/>
        <path class="cls-1" d="M67.68,4.71c.1-.03.19-.09.28-.14.02-.01.05-.03.08-.01.02.01.02.04.02.07.01.12.13.21.26.22.12,0,.24-.04.34-.11,0,.02,0,.05,0,.07.05.08.15.12.24.12.09,0,.19-.02.28-.05.11-.03.24-.08.3-.18-.06.06-.13.12-.21.11-.09-.01-.14-.12-.13-.21.01-.09.07-.17.13-.24-.16.1-.33.17-.5.22-.07.02-.15.04-.22.02-.07-.02-.14-.09-.13-.16,0-.04.03-.08.06-.11.04-.05.1-.09.16-.12-.14.06-.29.12-.43.18-.11.04-.22.09-.34.08-.12,0-.24-.08-.25-.2,0-.05,0-.09.02-.13-.02.01-.04.02-.06.04-.07.06-.14.12-.18.21-.04.08-.04.19.02.26.07.08.19.1.29.07"/>
        <path class="cls-1" d="M74.96,2.17s-.03.01-.04.02c-.01,0-.03.01-.04.02-.05.02-.11.03-.16.03-.09,0-.18-.06-.2-.14-.01-.06,0-.12-.03-.17-.03-.05-.1-.05-.16-.04-.13.03-.4.22-.51.05-.02-.03-.02-.06-.01-.09,0-.02.01-.04.02-.06-.12.1-.23.13-.36.2-.13.07-.26.13-.4.19-.08.03-.19.05-.25-.02-.08-.09,0-.25.07-.33.07-.08.07-.09.16-.14-.35.14-.65.21-1.02.34-.37.13-.74.29-1.03.56-.04.04-.09.09-.1.15-.01.06.02.13.08.15-.42.13-.78.41-1.01.78-.05.08-.09.19-.02.25.03.03.08.03.12.03.12,0,.24-.04.34-.11-.07-.05-.08-.15-.05-.22.03-.08.09-.14.15-.2.24-.22.52-.4.82-.52-.05.02-.1-.03-.1-.08,0-.05.03-.1.06-.13.03-.04.06-.07.09-.1.14-.14.31-.25.48-.34.19-.09.38-.17.58-.23.03,0,.06-.02.08-.03,0,0,.08-.02.08-.02-.06.19-.07.46.19.46.28,0,.55-.12.73-.33-.06.08-.11.2-.05.28.06.08.17.07.26.05.22-.05.42-.16.58-.3-.07.09-.13.22-.05.3,0,0,.02.02.03.02.05.02.1.02.15,0,.07-.01.15-.04.22-.07.09-.04.17-.1.25-.17,0,0,.05-.04.04-.05"/>
        <path class="cls-1" d="M69.36,6.57c-.32.16-.67.28-1.03.35-.11.02-.26,0-.27-.1,0-.05.02-.09.04-.13.12-.18.29-.33.48-.44-.31.15-.65.26-.99.31-.14.02-.33,0-.34-.15,0-.06.03-.11.07-.15.13-.16.29-.3.47-.41-.29.19-.6.33-.93.43-.13.04-.29.07-.41-.01-.08-.06-.09-.18-.04-.25-.2.11-.42.17-.65.16-.04,0-.09,0-.12-.04-.11-.1.02-.28.11-.38-.13.13-.26.26-.36.43-.05.09-.08.22,0,.27.03.02.07.02.11.02.08,0,.16,0,.24-.02.05,0,.1-.02.14-.03.06-.02.11-.03.16-.06.03-.01.14-.04.15-.07-.07.19.13.39.34.4.21,0,.39-.11.56-.23-.07.09,0,.24.1.29.11.05.23.03.35.01.2-.04.4-.1.59-.18-.07.18-.34.32-.25.5.04.07.13.1.21.12.32.06.66-.01.93-.2.06-.04.12-.09.19-.08.06,0,.1.04.16.06.11.05.24.04.34-.03-.2.01-.38-.18-.35-.38"/>
        <path class="cls-1" d="M65.09,7.88s0-.1.02-.14c0-.01.02-.03.03-.04-.02,0-.04.02-.05.03-.02.01-.04.02-.06.03-.04.02-.08.04-.12.06-.08.03-.17.06-.26.07-.06,0-.12,0-.18,0-.03,0-.06,0-.09-.01-.03,0-.05,0-.07-.03-.02-.02-.03-.06-.04-.09,0-.03,0-.07,0-.1,0,0,0-.02.01-.03.01-.03.02-.05.04-.08.02-.02.04-.05.06-.06-.19.12-.4.21-.62.26-.03,0-.07.01-.1,0-.06-.04-.03-.14,0-.2.18-.29.41-.54.66-.76-.27.18-.52.39-.73.63-.09.1-.18.23-.14.35.04.11.17.17.28.16.12,0,.22-.07.33-.12.03-.02.05-.03.08-.04.02-.01.05-.02.07-.04-.03.08-.04.17-.04.25,0,.04.01.08.03.11.02.03.05.06.09.06.04,0,.09,0,.13-.01.06-.01.12-.03.17-.05.09-.03.17-.07.25-.12.06-.04.11-.08.16-.13,0,0,.02-.02.03-.03,0,.01,0,.03,0,.05,0,.02-.01.04-.02.06,0,.04,0,.08.01.12.02.05.05.09.09.11.02.01.04.01.06.01.02,0,.05,0,.07,0,.09,0,.16-.05.23-.1.21-.15.37-.35.48-.58-.23.16-.48.3-.74.41-.03.01-.13.04-.15,0"/>
        <path class="cls-1" d="M87.62,4.3c.08.06.12.11.07.2-.05.08-.11.12-.2.13-.15.02-.29-.06-.42-.14.05.07-.02.18-.1.2-.08.03-.17,0-.26-.03l-.36-.12s.05.13,0,.17c-.07.06-.18.04-.27.02-.26-.06-.51-.15-.75-.26.09.13.23.23.32.37s.07.36-.09.41c-.15.05-.3-.1-.45-.14.07.07.14.15.18.24.03.09.02.21-.05.28-.08.06-.2.05-.29.02-.1-.03-.19-.09-.29-.11.12.05.2.2.14.32-.04.1-.18.14-.27.1,0,0,0,0,.01.01.02.02.04.05.05.07.05.09.04.23-.03.31-.11.13-.35.12-.45-.01.06.14.14.29.27.37.06.03.13.04.2.03.12-.02.22-.12.21-.25,0-.05-.03-.1-.05-.15-.02-.05-.05-.09-.08-.14.04.03.08.05.13.05.02,0,.04,0,.06-.01.04-.02.07-.04.09-.08.02-.04.04-.08.05-.12,0-.05,0-.1-.02-.15,0-.02-.02-.05-.03-.07-.01-.02-.02-.04-.04-.06.1.12.27.19.42.15.18-.05.28-.3.15-.44.15.04.32-.03.39-.16.07-.13.04-.31-.07-.42.16,0,.32,0,.48.01.08,0,.19-.02.19-.1,0,.02.14.09.16.1.06.03.11.05.17.07.1.02.23,0,.32-.06.02-.01.15-.16.1-.18.11.06.22.13.34.14.12.01.26-.05.3-.17.05-.16-.1-.34-.24-.4"/>
        <path class="cls-1" d="M89,4.8c-.08.01-.15-.05-.21-.11.06.1.19.14.3.18.09.03.18.05.28.05.09,0,.19-.04.24-.12,0-.02,0-.05,0-.07.1.07.22.12.34.11s.25-.1.26-.22c0-.03,0-.06.02-.07.02-.02.05,0,.08.01.09.05.18.11.28.14.1.03.22,0,.28-.07.06-.07.06-.18.02-.26-.04-.08-.11-.15-.18-.21-.02-.01-.04-.02-.06-.04.02.04.03.09.02.13-.02.11-.14.19-.25.2-.12,0-.23-.04-.34-.08-.14-.06-.29-.12-.43-.18.06.03.11.07.16.12.03.03.05.07.06.11,0,.07-.06.14-.13.16-.07.02-.15,0-.22-.02-.18-.05-.35-.12-.5-.22.06.07.12.15.13.24.01.09-.04.2-.13.21"/>
        <path class="cls-1" d="M83.33,2.22c.07.07.16.12.25.17.07.03.14.06.22.07.05,0,.11.01.15,0,.01,0,.02-.01.03-.02.08-.08.01-.21-.05-.3.16.15.37.25.58.3.09.02.21.03.26-.05.06-.08.01-.2-.05-.28.18.21.45.33.73.33.27,0,.26-.27.19-.46,0,0,.07.02.08.02.03,0,.06.02.08.03.2.06.4.14.58.23.18.09.34.2.48.34.03.03.06.07.09.1.03.04.06.08.06.13,0,.05-.05.1-.1.08.3.12.58.3.82.52.06.06.12.12.15.2.03.08.01.18-.05.22.1.07.22.11.34.11.04,0,.09,0,.12-.03.07-.06.03-.17-.02-.25-.23-.37-.6-.65-1.01-.78.06-.01.09-.09.08-.15-.01-.06-.06-.11-.1-.15-.29-.27-.66-.43-1.03-.56-.37-.13-.76-.23-1.11-.4.09.06.19.12.26.2.07.08.15.23.07.33-.06.08-.17.06-.25.02-.13-.06-.27-.12-.4-.19-.13-.07-.25-.1-.36-.2,0,.02.02.04.02.06,0,.03,0,.06-.01.09-.1.17-.38-.03-.51-.05-.06-.01-.13,0-.16.04-.03.05-.01.11-.03.17-.02.09-.11.14-.2.14-.06,0-.11-.01-.16-.03-.01,0-.03,0-.04-.01,0,0-.03-.02-.04-.02-.02,0,.03.04.04.05"/>
        <path class="cls-1" d="M88.88,6.98c.05-.02.1-.06.16-.06.07,0,.13.04.19.08.27.18.61.26.93.2.08-.02.17-.05.21-.12.09-.17-.18-.32-.25-.5.19.08.39.14.59.18.12.02.24.04.35-.01.11-.05.17-.19.1-.29.17.11.35.23.56.23.21,0,.41-.21.34-.4.01.03.12.06.15.07.05.02.11.04.16.06.05.01.09.02.14.03.08.01.16.02.24.02.04,0,.08,0,.11-.02.09-.05.05-.18,0-.27-.1-.16-.23-.29-.36-.43.09.1.21.28.11.38-.03.03-.08.03-.12.04-.23.01-.45-.05-.65-.16.05.07.04.2-.04.25-.11.08-.27.05-.41.01-.33-.1-.64-.24-.93-.43.18.11.34.25.47.41.04.04.07.1.07.15,0,.14-.2.17-.34.15-.34-.05-.68-.16-.99-.31.19.11.36.26.48.44.03.04.05.09.04.13-.02.11-.17.12-.27.1-.36-.07-.71-.18-1.03-.35.03.19-.15.39-.35.38.1.06.23.07.34.03"/>
        <path class="cls-1" d="M92.76,8.06c.07.05.15.09.23.1.02,0,.05,0,.07,0,.02,0,.04,0,.06-.01.04-.02.08-.06.09-.11.01-.04.02-.08.01-.12,0-.02,0-.04-.01-.06,0-.01,0-.03,0-.05.01,0,.02.02.03.03.05.05.1.09.16.13.08.05.16.09.25.12.06.02.11.04.17.05.04,0,.08.02.13.01.04,0,.07-.03.09-.06.02-.03.03-.07.03-.11,0-.09-.01-.17-.04-.26.02.02.05.02.07.04.03.01.05.03.08.04.1.06.21.11.33.12.12,0,.25-.05.28-.16.04-.13-.05-.25-.14-.35-.22-.24-.46-.45-.73-.63.25.23.48.48.66.76.04.06.07.16,0,.2-.03.02-.07.01-.1,0-.22-.05-.43-.14-.62-.26.02.02.04.04.06.06.02.02.03.05.04.08,0,0,0,.02,0,.03,0,.03,0,.07,0,.1,0,.03-.02.06-.04.09-.02.02-.04.02-.07.03-.03,0-.06,0-.09.01-.06,0-.12,0-.18,0-.09,0-.17-.03-.26-.07-.04-.02-.08-.04-.12-.06-.02-.01-.04-.02-.06-.04-.02-.01-.03-.03-.05-.03,0,.01.02.03.03.04.02.04.03.09.02.14-.01.05-.12.02-.15,0-.26-.11-.51-.24-.74-.41.11.23.27.43.48.58"/>
        <path class="cls-1" d="M78.6,13.14c-.63-.09-.82-.75-.82-.75l-.16.25c.42.6.98.5.98.5"/>
        <path class="cls-1" d="M77.33,3.17c-.11,0-.2.09-.2.2s.09.2.2.2.2-.09.2-.2-.09-.2-.2-.2M77.33,3.45s-.09-.04-.09-.09.04-.09.09-.09.09.04.09.09-.04.09-.09.09"/>
        <path class="cls-1" d="M99.92,15.19c-.06-.1-.17-.15-.29-.14l-2.63.57-.28,1.41-.69.45c0-1.21-.06-2.49-.17-3.8l1.39.3,1.55-2.15c.08-.11.08-.24,0-.35-.06-.1-.17-.15-.29-.14l-2.63.57-.28,1.41-6.29,4.12c-.03-.54-.06-1.09-.12-1.65,0-.02,0-.04,0-.05.15.02.3.03.43.03.35,0,.65-.07.91-.24.88-.56,1.15-2.26,1.19-2.59v-.04s-.08-.05-.08-.05c-.16-.11-.56-.43-.67-.88.14.01.28.05.42.1.12.04.25.11.38.17.36.17.79.38,1.3.38.17,0,.35-.02.54-.08.83-.28,1.16-.69,1.17-.71l.09-.12-1.03-.09.32-.96-.2.15s-.49.36-.71.44h-.04c-.2.08-.42.15-1.05-.11-.39-.16-.72-.22-1.01-.18-.37.04-.62.27-.85.47-.22.2-.5.44-.59.75v.04s-.03.1-.04.15v.02s0,0,0,0c-.01.1,0,.19,0,.29.02.14.06.28.11.41.04.1.1.2.16.29,0,0,0,0,0,0-.64,0-1.51-.12-2.68-.49-.85-.27-1.69-.4-2.51-.4h0c-1.16,0-2.13.26-2.92.62,0-.03,0-.05-.01-.08-.02-.06-.06-.12-.09-.18-.09-.15-.19-.31-.21-.49-.03-.2,0-.4.04-.6.04-.29.03-.55-.05-.81-.05-.16-.12-.29-.22-.4-.04-.05-.08-.09-.12-.15-.02-.02-.04-.04-.05-.07.1-.16.15-.32.15-.48,0-.02.02-.04.03-.06v-.02s.04-.04.06-.06c.03-.03.05-.07.07-.11.05-.1.08-.2.07-.32v-.18s.05-.04.08-.06c.09.2.25.32.46.32.2,0,.43-.1.59-.27.04.05.09.1.16.12.17.07.34-.05.39-.08.15-.1.29-.21.4-.36.06.02.12.02.16.01.2-.03.32-.23.39-.39v-.03c.05-.08.05-.08.07-.1.15-.07.22-.22.26-.34.02,0,.04,0,.06-.02.07-.03.11-.03.16.02.09.08.21.08.31.03.08.08.19.12.3.1.07-.01.14-.05.2-.1.03.02.06.04.1.05.06.02.11.08.17.17l.03.03c.15.2.31.24.41.24.08,0,.2-.03.32-.14.17.11.31.11.4.09.1-.02.24-.1.33-.31.08-.18.13-.35.14-.51.09,0,.18-.05.25-.12.02.02.05.04.06.05.03.03.07.06.09.07.18.12.38.24.57.33.06.03.14.06.23.07.08,0,.14,0,.19-.02.02.01.05.04.09.06.55.39.89.57,1.13.43.03-.02.07-.05.1-.09.32.23.66.45,1.05.59.08.03.17.03.25,0,.06-.02.11-.05.15-.09.09.06.17.12.26.18.29.21.59.43.94.56.2.09.34.05.42,0,.11-.07.16-.18.18-.29.18.16.38.32.68.41h.02c.16.04.26,0,.33-.07.22.18.45.36.72.48.13.06.28.05.39-.04.06-.04.09-.09.11-.14.22.1.42.2.61.34.09.06.32.23.56.08.05-.03.1-.09.13-.16.12.1.24.19.36.27.11.08.45.31.69.18.05-.03.13-.09.16-.22.07.05.15.09.23.14.12.07.24.15.37.23.26.18.53.36.86.43h.02s.03,0,.05,0c.08,0,.14-.02.19-.07.08-.06.11-.16.1-.28-.05-.46-.34-.79-.61-1.08-.69-.76-1.51-1.45-2.29-2.11-.3-.25-.6-.51-.9-.76-2-1.75-4.07-3.33-6.34-4.85-1.99-1.33-4-2.05-5.98-2.15-.86-.04-1.53.07-2.06.33-1.22.64-.83,1.96-.54,2.93l.02.08c.17.52.19.89.06,1.1-.05.08-.13.14-.24.18,0,0,0-.01,0-.01l-.03-.03c-.5-.58-1.3-.54-1.54-.52-.09-.06-.18-.12-.23-.16.03-.37-.05-.7-.23-.97-.06-.09-.13-.17-.21-.25,0,0,0,0,0,0,0,0,0-.01,0-.02-.01-.13-.07-.26-.16-.34-.11-.11-.27-.17-.45-.16-.16,0-.3.05-.4.1h-.03c-.09.05-.18.09-.24.07-.01,0-.03-.01-.05-.02.11-.62,0-1.2-.32-1.58-.59-.69-1.71-.78-2.55-.73-1.98.1-4,.82-5.98,2.15-2.26,1.52-4.34,3.1-6.34,4.85-.29.25-.6.51-.9.76-.79.66-1.6,1.34-2.3,2.11-.26.29-.56.62-.6,1.08-.02.19.09.28.14.31.05.03.1.04.17.04.16,0,.36-.08.62-.25.15-.1.29-.19.43-.27.12-.07.24-.15.36-.22.05-.03.12-.02.14.03.04.07.09.11.13.13.21.1.5-.04.95-.39.04-.03.11-.03.14.01.03.03.06.06.09.08.24.15.47-.02.56-.09.16-.12.34-.21.52-.3.04-.02.09,0,.12.04.02.02.04.05.07.07.11.09.26.1.39.04.25-.11.45-.27.66-.43.02-.02.05-.04.07-.05.07.06.18.1.33.07h.02c.24-.07.41-.19.56-.32.05-.04.13-.03.15.03.03.07.07.12.14.16.08.05.22.09.41,0,.36-.14.66-.36.95-.57.09-.06.17-.13.26-.18.03.04.08.07.14.09.08.02.16.02.25,0,.36-.13.67-.33.97-.54.04-.03.09-.02.13,0,.04.03.09.06.14.07.23.05.55-.13,1.02-.46.04-.03.07-.05.1-.07.04.01.11.03.19.02h.03c.25-.07.46-.21.66-.34l.11-.07s.05-.04.09-.07c.02-.01.04-.03.06-.05.05.06.12.09.19.11.04,0,.07.04.07.08.04.28.16.62.41.73.08.03.22.07.4-.03.04-.02.08-.02.11,0,.1.08.2.1.27.1.11,0,.26-.04.41-.24l.03-.03c.07-.09.11-.14.17-.17.04-.01.07-.03.1-.05.06.05.13.09.2.1.11.02.22-.02.3-.1.1.05.22.05.31-.03.05-.05.09-.05.16-.02.02,0,.04.01.06.02.04.12.11.27.26.34.02.01.03.02.06.1l.02.04c.07.15.18.35.39.38.05,0,.12,0,.19-.03,0,0,0,0,0,.01l.02.11.1-.06c.15-.1.29-.27.4-.48.05.24.14.46.27.66-.43.36-.66.95-.56,1.47l.02.11.1-.06c.16-.09.31-.27.42-.48.05.3.16.59.34.82-.43.45-.53.98-.39,1.48l.03.11.09-.07c.15-.11.27-.28.36-.5.03.15.07.29.12.43.12.28.1.35.34.53-.04.06-.08.13-.12.2-.76-.32-1.69-.56-2.77-.56h0c-.81,0-1.65.13-2.51.4-1.18.37-2.05.49-2.68.49,0,0,0,0,0,0,.06-.09.11-.19.16-.29.06-.13.1-.27.11-.41.01-.1.01-.19,0-.29h0s0-.02,0-.02c0-.05-.02-.1-.03-.15v-.04c-.09-.31-.37-.55-.6-.75-.23-.2-.49-.42-.85-.47-.29-.04-.62.02-1.01.18-.63.26-.85.18-1.05.12h-.04c-.23-.1-.71-.45-.71-.45l-.2-.15.32.96-1.03.09.09.12s.34.43,1.17.71c.19.05.37.08.54.08.51,0,.94-.2,1.3-.38.14-.06.26-.13.38-.17.14-.05.28-.08.42-.1-.11.45-.51.77-.67.88l-.09.05v.04c.05.33.32,2.03,1.2,2.59.26.17.56.24.91.24.13,0,.27,0,.42-.03-.05.57-.1,1.13-.12,1.69l-6.28-4.11-.28-1.41s-2.63-.57-2.63-.57c-.11,0-.22.04-.29.14-.07.11-.07.25,0,.35l1.55,2.15,1.39-.3c-.1,1.31-.16,2.58-.17,3.8l-.69-.45-.28-1.41s-2.63-.57-2.63-.57c-.11-.01-.22.04-.29.14-.07.11-.07.25,0,.35l1.55,2.15,1.35-.29c-.96,7.25.12,12.18,1.2,15.04,1.11,2.94,2.42,4.34,2.63,4.55.36.41,2.68,2.94,6.29,2.94,1.56,0,3.35-.48,5.32-1.81-.62,2.02-2.2,4.39-2.21,4.42l-.09.13h.16c.71-.03,1.28.03,1.71.12l-.27,1.09c-.04.1-.03.18-.03.18,0,.06.02.18.12.27.16.15.47.19.9.12.2-.03.35-.04.47-.02l.04,1.15s0,.04,0,.07c0,.03.01.05.03.08.14.22.66.33,1.53.33s1.39-.11,1.53-.33c.04-.06.04-.11.03-.15l.04-1.15c.12-.01.27,0,.47.02.43.07.73.03.9-.12.11-.1.13-.22.12-.27,0-.03,0-.05,0-.08,0-.07-.03-.14-.05-.2-.03-.11-.05-.22-.08-.33-.03-.13-.06-.26-.1-.39-.02-.08-.04-.17-.06-.25,0,0,0-.01,0-.02.43-.08,1-.14,1.71-.12h.16s-.09-.12-.09-.12c-.02-.03-1.6-2.41-2.22-4.43,1.97,1.34,3.77,1.82,5.33,1.82,3.6,0,5.95-2.55,6.31-2.96.06-.06,1.41-1.39,2.6-4.54,1.08-2.86,2.16-7.79,1.2-15.04l1.35.29,1.55-2.15c.08-.11.08-.24,0-.35M96.27,12.27l2.03-.44-1.21,1.68-1.02-.22.21-1.02ZM61.33,13.52l-1.21-1.68,2.03.44.21,1.02-1.02.22ZM60.23,17.22l-1.21-1.68,2.03.44.21,1.02-1.02.22ZM92.57,15.83l2.89-1.89c.1,1.32.15,2.6.15,3.82l-3.29,2.15c.14-1.23.22-2.57.25-4.08M89.35,17.94l1.37-.9c-.06,1.51-.19,2.88-.38,4.17l-1.07.7c.1-1.25.13-2.57.08-3.97M89.22,22.45l1.71-1.12c-.1,2.35-.41,4.69-1.14,6.93-.37,1.14-.85,2.25-1.43,3.32-.58,1.05-1.27,2.05-2.03,2.97-.4.48-.82.95-1.26,1.39-.32-.31-.55-.58-.7-.76,2.27-2.83,4.31-7.02,4.87-12.73M81.75,35.08c-.04-.07-.12-.1-.18-.12h-.03s-.06-.05-.06-.06c0,0,.03-.02.04-.03.02-.01.04-.03.07-.05.09-.12.08-.25,0-.37-.12-.17-.38-.26-.55-.2-.08.02-.15.06-.22.09-.03.02-.07.04-.1.05-.05.02-.17.06-.25,0-.03-.02-.05-.05-.07-.08-.03-.04-.07-.08-.12-.11-.07-.05-.16-.05-.23-.06l-.93-.06c-.12-.01-.2.03-.25.13-.02.02-.06.02-.12.02-.05,0-.11,0-.17.01-.1.03-.16.11-.21.18-.03.04-.06.08-.09.11-.09.06-.21.05-.34.03-.06,0-.13-.02-.19-.02-.17,0-.42.07-.55.24-.07.09-.1.2-.06.32,0,.02.02.04.04.06,0,.01.02.02.02.04.02.04,0,.11-.04.15-.05.06-.14.07-.24.08-.11.01-.23.02-.32.12-.03.03-.05.07-.06.1-.02.03-.03.06-.05.07-.02.02-.04.03-.07.04-.03.01-.05.02-.08.04-.18.12-.18.32-.18.51,0,.08,0,.14-.01.2-1.47-1.4-2.97-3.37-4.16-5.94h1.21c.03.05.05.11.08.16.17.37.35.76.68,1.02.09.1.15.21.22.33.06.11.13.23.22.33.13.15.29.26.44.37.44.3.93.63,1.49.75.14.03.28.04.41.06.17.02.32.04.48.08.11.03.22.07.33.11.09.03.18.07.28.1.35.1.71.12,1.07.13.59.02,1.21.05,1.8-.11l.09-.02c.29-.08.59-.16.8,0,.08.06.14.16.2.26.11.17.22.35.44.37.06,0,.07,0,.07,0,.01.01.01.07.01.11,0,.03,0,.06,0,.1.02.11.1.19.22.22.03,0,.06.01.1.01.1,0,.2-.04.26-.12.15-.18.07-.46-.09-.6h-.01s-.03-.04-.04-.05c0,0,0-.03.04-.09.23-.32.6-.53.99-.57.03,0,.06,0,.09,0,.14,0,.28-.02.4-.1l.12-.08-.12-.06c-.08-.04-.16-.09-.24-.15.29-.16.61-.22.95.17-.89,1.36-1.86,2.48-2.82,3.36-.02-.03-.03-.07-.04-.13v-.02s-.04-.06-.06-.09c-.01-.02-.03-.03-.03-.05,0-.02-.01-.06-.01-.09,0-.03,0-.06,0-.09-.03-.16-.16-.28-.38-.36-.06-.02-.08-.03-.08-.04.01-.07.06-.14.11-.21.09-.14.19-.29.11-.49M77,15.6c-2.53.89-4.53.27-5.71-.36.25-.07.5-.14.77-.21,2.31-.44,4.03-.07,4.95.24-.01.11-.02.22,0,.32M77.89,15.7c.14.19.32.35.51.46l.1.05.02-.11c.03-.2,0-.44-.06-.68.17-.09.34-.18.51-.28.03.09.07.17.12.25l.06.1.07-.09c.06-.08.12-.18.16-.29,1.66.99,3.17,1.34,4.46,1.34,1.59,0,2.85-.52,3.67-.98.01,0,.08-.05.13-.08.33.09.63.17.91.24,0,.05,0,.11,0,.13.26,2.7.22,5.14-.05,7.34h-18.62c-.28-2.24-.33-4.72-.07-7.47.29-.07.6-.15.93-.24,1.33.79,3.94,1.71,7.13.3M76.33,10.03h0s-.02-.05-.02-.08c.16.14.34.25.54.3l.11.03v-.11c-.03-.24-.15-.51-.34-.74h0c-.13-.15-.33-.31-.55-.4.03-.13.04-.27.03-.41l.55.42.15.22v.44s.06.07.08.11c.02.02.03.04.05.06v.02s.05.05.05.06c0,.17.05.33.15.48-.02.02-.04.04-.05.07-.04.05-.08.1-.12.15-.09.1-.16.22-.21.36-.15-.11-.33-.24-.39-.27.04-.22.03-.46-.02-.72M76.54,3.96c0,.1-.02.21-.04.32-.03.17-.09.35-.17.5-.13.25-.32.46-.5.57,0-.4.15-.8.41-1.11.1-.11.2-.21.3-.29M76.42,3.67c-.32-.04-.59.05-.8.26,0,0,0,0,0,0,0-.08.02-.15.05-.21.03-.06.06-.1.09-.15.07-.09.17-.18.28-.24.07-.04.14-.05.2-.05.06,0,.12.01.18.02.06.02.1.06.12.14.01.06,0,.1-.04.22,0,0,0,0-.01,0-.02,0-.04,0-.07,0M75.94,6.56h0c0-.07,0-.13,0-.2.14.19.33.34.54.43l.1.04v-.11c.02-.24-.06-.52-.22-.78h0c-.11-.16-.27-.34-.46-.46.21-.13.41-.35.56-.63h0c.08-.16.14-.34.18-.51.06.19.14.37.22.51.15.25.37.45.61.59-.27.48-.29,1.05-.06,1.5l.05.1.08-.09c.14-.16.23-.4.27-.67.15.3.36.56.62.72-.09.08-.17.18-.25.28-.23.31-.34.73-.28,1.11l.02.11.1-.05c.19-.1.37-.31.5-.58.06.33.19.64.4.88-.2.13-.38.3-.5.51-.14.23-.22.5-.22.77v.11s.11-.04.11-.04c.18-.06.36-.21.51-.41-.02.35.05.69.21.98-.1.04-.2.1-.3.17-.31.22-.54.58-.6.96l-.02.11.11-.02c.19-.03.4-.14.59-.32-.08.4-.04.83.13,1.18-.12.14-.22.29-.31.48-.17.34-.23.74-.18,1.12-.23-.21-.53-.44-.89-.68-.03-.1-.06-.19-.09-.25h0s-.04-.08-.06-.11c.14.05.29.08.43.08.04,0,.08,0,.12,0h.11s-.04-.11-.04-.11c-.09-.22-.29-.44-.54-.59h0s-.03-.02-.06-.03c-.01-.17-.06-.34-.26-.36-.07,0-.14,0-.21.02-.01,0-.03,0-.04,0,0,0-.01-.02-.02-.03-.04-.14-.07-.28-.09-.42.11.08.23.15.36.19l.1.03v-.11c0-.24-.11-.51-.29-.75h0s-.05-.05-.1-.09c.02-.04.03-.09.06-.12.1-.17.21-.33.33-.48.02-.02.04-.05.07-.04-.13-.08-.21-.17-.24-.32-.02-.11-.03-.24,0-.35,0-.02.01-.04.03-.05-.08-.02-.14-.1-.16-.19-.02-.08-.03-.19-.02-.27v-.04s-.33-.5-.33-.5c0,0-.34,0-.53-.3,0,0,0-.01-.01-.02,0-.05-.01-.11-.02-.17.13.11.28.2.44.25l.11.03v-.11c-.01-.24-.12-.51-.31-.75h0c-.15-.19-.35-.34-.56-.44.1-.2.17-.45.19-.72M75.8,5.62c.17.1.33.28.43.42.11.18.18.38.2.56-.16-.09-.3-.22-.4-.38-.06-.1-.11-.21-.15-.32-.01-.06-.03-.11-.05-.17,0-.03-.02-.07-.02-.1M76.73,3.97c.22.14.43.34.57.57.15.25.23.52.24.76-.22-.12-.41-.31-.54-.52-.15-.26-.25-.55-.27-.8M77.59,5.57c.06.17.09.4.08.62-.02.22-.08.41-.16.56-.14-.36-.11-.81.08-1.18M77.78,5.53c.22.15.41.36.55.6.12.21.18.44.21.65v.09c-.43-.22-.71-.76-.75-1.33M78.51,7.17s0,.05,0,.08c0,.04,0,.08,0,.12-.02.15-.05.3-.11.43-.09.19-.21.35-.33.46-.01-.3.08-.61.27-.86.06-.07.12-.15.19-.22M79.34,9.85c0,.28-.05.55-.15.75h-.02c-.17-.35-.23-.76-.15-1.15.03-.14.07-.29.12-.42.12.25.2.54.21.82M79.26,8.66c.16.12.3.27.4.45.1.19.16.39.17.57-.23-.15-.42-.41-.51-.71-.02-.1-.05-.21-.06-.31M78.84,14.18c-.06.12-.13.23-.21.31-.09-.38-.05-.82.13-1.18.07-.14.14-.26.22-.36.02.1.03.21.04.31,0,.1,0,.2,0,.3-.06.13-.1.27-.14.42-.02.07-.03.13-.04.2M78.85,14.72s-.01,0-.02.01c-.03-.03-.07-.07-.1-.11.03-.04.07-.07.1-.12,0,.07.01.14.02.21M77.66,14.56c.21.16.4.38.53.62.13.26.19.54.19.78-.31-.21-.54-.56-.64-.95-.03-.14-.07-.3-.07-.45M77.68,15.33s-.03.01-.04.02c-.03-.01-.06-.03-.09-.04.01-.04.03-.07.04-.11h0s0-.05.02-.07c.02.07.05.13.07.2M78.28,15.03c-.15-.26-.37-.5-.62-.66,0-.1-.02-.28-.05-.46.38.26.68.51.89.72,0,.01,0,.02,0,.04l.04.11.06-.05s.05.05.07.07c0,0-.01,0-.02.01-.09.05-.17.09-.26.14-.04.02-.08.05-.12.07M79,14.23c.06-.12.1-.25.14-.39h0c.02-.08.03-.15.04-.23.04.09.07.19.1.29.05.17.07.35.07.53,0,.29-.07.56-.19.76-.14-.29-.2-.64-.16-.97M79.17,12.88c.14.14.26.31.33.49.08.19.11.39.1.55-.27-.25-.44-.64-.43-1.05M79.04,12.59c-.14-.37-.15-.8-.01-1.19.05-.14.11-.27.18-.39.03.1.06.2.07.3.03.17.04.36.02.54-.03.29-.13.55-.26.74M78.77,11.39c-.14.15-.3.27-.46.32.08-.29.26-.56.51-.73.08-.06.17-.11.25-.14-.02.05-.04.11-.06.16l-.02.05c-.06.12-.13.24-.22.35M78.76,7.32s.08.09.12.14c.08.14.14.29.18.44.05.19.06.38.05.55v.06s-.01.04-.01.05c0,.04-.01.08-.02.11h-.02c-.25-.27-.4-.66-.41-1.07,0-.08,0-.17,0-.26,0-.04,0-.08.01-.12,0,0,0-.01,0-.02.03.04.06.08.09.12M78.72,6.96c.19.05.37.13.52.25.16.14.29.3.36.46-.21-.04-.42-.15-.59-.31-.08-.15-.18-.29-.3-.41M78.97,8.92c-.02.19-.1.4-.21.6-.11.18-.25.32-.39.4.02-.2.08-.4.19-.56.11-.17.25-.32.41-.44M77.41,12.84c.18.11.33.25.42.41-.18,0-.36-.05-.52-.15-.04-.03-.08-.06-.12-.09-.1-.06-.25-.24-.24-.23-.03-.04-.06-.08-.09-.11.19.01.39.07.56.17M76.98,12.55s0-.02.01-.02c.03-.04.06-.07.1-.09.02-.01.05-.02.07-.02s.04,0,.06.01c.01,0,.03.02.04.03,0,.01.02.03.02.05,0,.02,0,.04,0,.07,0,.01,0,.03,0,.04-.1-.03-.21-.05-.31-.08M76.19,7.81c.13.17.22.36.25.53-.18-.08-.34-.21-.47-.38-.06-.15-.13-.3-.22-.43-.01-.03-.03-.07-.03-.1.18.09.34.22.47.37M76.02,9.19c.18.08.36.23.47.35.14.16.24.35.28.52-.17-.07-.33-.18-.45-.32-.13-.15-.24-.34-.3-.54,0,0,0,0,0,0M76.86,11.32c.13.17.21.36.24.54-.25-.11-.47-.34-.59-.62-.04-.09-.08-.2-.11-.3.17.09.34.22.46.38M76.83,12.9c.07.08.14.15.23.21.11.12.2.25.27.39.13.26.19.54.19.78-.31-.21-.54-.56-.64-.95,0-.04-.02-.08-.03-.12,0-.09-.02-.17-.04-.26,0-.02,0-.05,0-.07,0,0,.02.02.03.02M77.44,15.15c-.06.2-.16.37-.27.49-.03-.18-.01-.38.04-.56.07-.2.17-.39.28-.53.02.2,0,.4-.05.59M80.97,15.44c.71-.3,2.64-.93,5.39-.41.24.06.48.13.71.19-1.45.76-3.54,1.26-6.09.21M88.46,23.53c-.35,2.53-1,4.73-1.82,6.61h-7.23v-.2l.49-1.04-.46-1.4c.25.04.5.11.74.25.05.21.28,1.06.67,1.19.14.05.31.07.48.07.34,0,.68-.08.83-.17l.09-.06-.09-.07s-.29-.21-.57-.5c-.38-.39-.37-1.12-.35-1.49,0-.03,0-.08.01-.13.05-.55.21-2.21-1.19-2.47-.3-.06-.61-.06-.91,0-.26.05-.52.13-.76.25-.2.1-.39.21-.57.35-.1.08-.22.15-.31.25-.11.12-.13.24-.15.39-.02.14-.03.28-.03.41,0,.08,0,.17.05.24.1.14.2.1.27.08.02,0,.03-.01.05-.02.02.2-.07,1-.19,1.71l-.03.17.15-.09s.48-.28,1.12-.36l-.47,1.41.5,1.04v.2h-7c-.83-1.89-1.48-4.09-1.84-6.61h18.51ZM83.81,33.16c.06.06.13.12.21.17-.06.01-.12.02-.19.02-.03,0-.06,0-.1,0-.44.04-.85.28-1.11.64-.02.03-.1.14-.05.24.02.05.05.08.08.1h.01c.1.1.16.28.07.39-.04.06-.13.07-.19.05-.03,0-.09-.03-.1-.09,0-.03,0-.06,0-.08,0-.08,0-.17-.06-.23-.04-.04-.11-.06-.18-.05-.14-.01-.22-.14-.31-.29-.07-.11-.14-.22-.24-.3-.27-.21-.63-.12-.94-.03l-.08.02c-.57.15-1.17.13-1.76.1-.34-.01-.7-.03-1.03-.13-.09-.03-.18-.06-.27-.09-.11-.04-.23-.08-.35-.12-.17-.04-.34-.06-.5-.08-.13-.01-.27-.03-.4-.06-.53-.11-1.01-.44-1.43-.72-.15-.1-.3-.2-.41-.34-.08-.09-.14-.2-.2-.31-.07-.12-.14-.25-.25-.37-.31-.25-.47-.6-.64-.97-.01-.03-.03-.06-.05-.09h13.09c-.43.94-.91,1.8-1.41,2.58-.46-.48-.91-.31-1.22-.11l-.09.05.07.07ZM78.46,28.9l.47-1.41c.11,0,.22,0,.33,0l.47,1.41-.47.99v.25h-.31v-.23l-.49-1.01ZM80.57,25.66c-.17-.37-.48-.7-.89-.77-.33-.05-.67.08-.96.24-.25.14-.48.3-.69.49-.1.09-.19.18-.3.25-.04.03-.11.08-.16.08-.06,0-.08-.07-.08-.12,0-.17,0-.34.04-.51,0-.05.02-.1.04-.15.03-.06.08-.11.13-.15.55-.47,1.25-.79,1.97-.79.29,0,.59.05.83.21.34.22.53.63.6,1.04.07.41.03.82,0,1.23-.02.41,0,.83.15,1.21.14.34.4.63.72.82-.28.1-.58.13-.87.09-.1-.01-.2-.03-.28-.09-.09-.06-.15-.16-.2-.25-.12-.22-.21-.46-.27-.71-.01-.05-.02-.1-.06-.14-.02-.03-.05-.05-.08-.06-.38-.21-.83-.29-1.26-.27-.43.02-.86.15-1.26.33.09-.52.15-1.04.16-1.57,0-.03,0-.06,0-.08,0,0,0-.01,0-.02.01-.03.04-.05.06-.07.3-.28.63-.53,1.01-.71.27-.13.59-.22.87-.12.16.06.3.18.4.32.31.41.38.95.43,1.47.05,0,.1,0,.15,0-.03-.41-.07-.82-.24-1.2M90.41,11.56c.22-.19.45-.39.77-.43.27-.03.57.02.93.17.69.28.94.2,1.16.12h.05c.15-.07.39-.22.56-.34l-.23.68.91.08c-.15.14-.46.37-.98.54-.7.2-1.24-.06-1.72-.29-.14-.07-.27-.13-.4-.18-.49-.18-1.03-.15-1.47.07.11-.16.28-.3.43-.43M89.86,12.26c.27-.2.61-.29.96-.29.1.49.48.83.69.98-.16.15-.54.41-1.37.44-.1-.13-.42-.62-.28-1.14M84.76,12.67h0c.79,0,1.62.13,2.46.39,2.72.83,3.93.39,4.33.06-.09.55-.39,1.83-1.09,2.28-.65.43-1.66.14-3.06-.25-.31-.09-.65-.18-1-.28-2.98-.57-5.02.2-5.62.48-.12-.05-.25-.11-.37-.17-.02-.02-.05-.03-.07-.05-.1-.06-.21-.12-.31-.18-.08-.05-.17-.09-.26-.14,0,0-.01,0-.02-.01.63-.67,2.32-2.13,5.02-2.13M81.63,12.95s.03.05.05.08c.02.04.04.07.04.11,0,.09-.11.12-.18.09-.12-.05-.25-.15-.34-.24-.12-.11-.42-.52-.16-.65.14-.07.28.09.35.19.1.13.17.27.25.41M81.65,4.68c.27-.43.12-1.04-.02-1.45l-.02-.08c-.33-1.11-.51-1.99.33-2.43.46-.23,1.06-.32,1.84-.29,1.91.09,3.85.79,5.77,2.08,2.25,1.51,4.31,3.08,6.29,4.81.3.26.6.52.9.77.78.65,1.58,1.32,2.26,2.07.19.21.38.42.46.66-.18-.07-.35-.19-.52-.31-.13-.09-.26-.18-.4-.25-.26-.15-.39-.24-.61-.46-.1-.08-.23-.08-.32,0-.09.08-.11.22-.04.33.05.07.07.11.09.14-.05-.02-.1-.06-.15-.1h-.01c-.15-.11-.3-.23-.45-.36-.12-.1-.24-.2-.37-.29l-.76-.54.45.82c.03.06.06.12.08.18,0,0,0,0,0,0-.25-.18-.52-.31-.79-.43l-.1-.05c-.09-.05-.2-.04-.28.02-.07.05-.11.12-.11.2-.2-.11-.37-.25-.56-.4-.05-.04-.1-.08-.15-.12l-.19-.15-.12.2s-.02.04-.03.06c0,0,0,0,0,0-.2-.06-.33-.18-.49-.32-.08-.07-.16-.13-.25-.2-.08-.06-.19-.07-.28-.02-.09.04-.15.13-.15.24v.02c0,.05,0,.15-.01.21,0,0-.01,0-.02,0-.31-.12-.57-.31-.86-.52-.15-.11-.31-.22-.48-.33l-.18-.11-.11.18s-.03.06-.04.08c-.36-.14-.68-.37-1-.59l-.07-.05s-.19-.14-.33-.05c-.04.03-.11.09-.11.22-.1-.04-.28-.14-.61-.37-.05-.04-.1-.07-.11-.08-.14-.1-.26-.08-.35-.04,0,0-.01,0-.02,0-.02,0-.06-.02-.09-.03-.18-.09-.35-.19-.52-.3-.01,0-.03-.03-.05-.04-.11-.09-.26-.22-.44-.19-.08.02-.15.06-.2.14-.1-.04-.19-.03-.26.02-.12.08-.12.23-.12.28,0,.15-.03.3-.11.48-.03.06-.05.07-.05.07,0,0-.03,0-.09-.05,0,0-.01,0-.02-.01-.04-.04-.13-.12-.25-.1-.05,0-.13.04-.19.13-.04.06-.07.07-.07.07,0,0-.03-.02-.07-.07l-.02-.03c-.08-.1-.17-.23-.35-.3,0-.01-.02-.03-.03-.05l-.02-.04c-.05-.08-.14-.12-.24-.12-.09,0-.18.07-.22.15v.02c-.05-.05-.12-.1-.21-.11-.08,0-.14.02-.18.05-.14-.08-.28-.09-.44-.05-.08-.02-.14,0-.18.02-.12.06-.15.18-.16.21-.01.05-.04.14-.06.16-.17.08-.23.22-.27.31v.02c-.03.05-.05.09-.07.11-.06-.05-.14-.06-.21-.05-.08.02-.15.08-.18.15-.06.14-.18.23-.33.33h0s-.01-.06-.02-.1c0-.06-.02-.13-.05-.2l-.2-.54-.22.6s-.02.06-.04.1c-.05.16-.25.3-.37.3-.02,0-.07,0-.11-.14,0-.01,0-.02,0-.03,0-.06-.02-.16-.1-.25l-.18.14c-.05-.25-.23-.52-.26-.59-.05-.11-.02-.32.11-.56.13-.25-.21-.84-.21-.84.46-.56.21-1.27-.02-1.69.16-.08.28-.18.37-.32M80.77,4.86s.09.08.21.1c0,0,.01.01.02.02.19.22.28.45.35.73.04.15.06.31.02.46-.03.12-.09.23-.18.31-.06.05-.11.12-.16.17,0,0-.03.02-.04.03-.14.07-.37.16-.75.21,0,0-.27.19.82-.03.06.07.12.14.17.22.06.1.1.16.07.28,0,.09-.07.21-.1.29-.03.1-.06.2-.05.3.02.26.26.4.32.64.03.13,0,.27-.08.37-.03.04-.12.08-.14.12-.01.04.03.11.03.15.01.08,0,.19-.02.27-.02.08-.08.16-.17.19.02,0,.03.03.03.05.02.11.02.24,0,.35-.03.15-.11.24-.24.32.03,0,.05.02.07.04.12.15.23.31.33.48.11.18.13.43.14.64,0,.22-.03.44-.09.65,0,.01,0,.02-.02.03-.01,0-.03,0-.04,0-.07-.01-.14-.03-.21-.02-.23.03-.26.27-.26.46l-.34-.37s-.19.66-.82.75c0,0,.55.09.96-.48.03.05.05.09.08.14.08.12.18.24.29.34.11.1.23.22.35.29.01,0,.02,0,.04.02-.88.48-1.47,1.04-1.78,1.37-.03-.02-.06-.04-.1-.06,0-.08.02-.16.02-.24h0c0-.15-.02-.29-.04-.43.05.05.1.09.15.13l.09.07.03-.11c.06-.22.02-.5-.09-.78h0c-.1-.25-.27-.47-.47-.64.14-.21.24-.49.28-.8h0c.01-.12.01-.24,0-.36.16.21.38.38.61.46l.11.04v-.11c0-.24-.1-.51-.28-.76h0c-.14-.19-.34-.36-.55-.46.11-.22.17-.51.16-.82h0c0-.09-.01-.18-.03-.27.11.13.24.23.39.31l.1.05v-.11c.04-.24-.02-.52-.17-.79h0c-.13-.22-.32-.42-.53-.55.01-.19,0-.41-.06-.62h0c-.02-.06-.04-.13-.06-.19.18.11.37.17.57.18h.11s-.03-.1-.03-.1c-.06-.23-.23-.47-.46-.66h0c-.19-.15-.42-.25-.65-.3-.02-.24-.1-.5-.23-.75h0c-.17-.3-.43-.57-.72-.73l-.04-.02c0-.26-.1-.56-.27-.83h0c-.08-.14-.19-.26-.31-.38.04.01.07.03.09.03.09.02.31.25.39.33.03.03.09.05.15.07l.02.33s.19-.31.39-.33c0,0,.47.2.53.68.03.24.03.55.09.78,0,.04.02.09.05.12.03.03.08.05.13.05.29.05.61.02.87-.13.12-.07.26-.18.27-.33.01-.2-.04-.38-.11-.57-.04-.11-.1-.23-.16-.33-.03-.05-.07-.11-.11-.16-.04-.06-.1-.1-.15-.15-.01-.01-.02-.03-.03-.04.23-.02.85-.02,1.22.42M79.31,10.83c.17.1.33.23.45.39.12.17.21.37.24.54-.25-.12-.46-.36-.59-.64-.04-.09-.08-.2-.1-.3M78.83,3.63v.05c0,.06,0,.11-.02.17-.04.16.04.26.14.35.02.02.05.04.07.05.01,0,.02.01.03.02.25.17.45.4.61.66.1.18.23.4.27.61.04.18-.12.33-.26.41-.2.11-.44.14-.66.08-.02,0-.05-.01-.06-.03-.03-.03-.03-.08-.03-.12,0-.1,0-.19,0-.28v-.13s-.02-.04-.02-.06v-.02c-.02-.43-.22-.78-.61-1.06-.07-.05-.17-.11-.3-.07-.03,0-.06.01-.09.02-.01,0-.03,0-.04,0-.06,0-.11,0-.15-.05-.27-.25-.57-.41-.9-.48,0,0,0,0-.01,0,.03-.16.03-.31-.02-.46.04-.03.09-.04.14-.07.05-.03.09-.07.14-.11.08-.07.16-.14.26-.14.05,0,.09,0,.14.02.04.01.07.01.11.02.09.01.18.02.27-.02.05-.02.11-.06.17-.05.05.01.08.05.12.07.04.02.09.03.13.05.07.02.14,0,.19-.03.02,0,.03-.01.05-.02.25.14.37.35.36.64M77.63,2.54c.18.08.37,0,.37,0h.03c.12-.07.21-.09.29-.09.09,0,.17.02.22.07.04.03.06.08.08.11,0,.02.02.08,0,.13-.01.02-.03.04-.05.06-.08.07-.2.09-.29.04-.07-.04-.13-.11-.21-.13-.09-.02-.13.04-.2.08-.12.05-.25-.01-.38-.03-.25-.03-.41.12-.57.29-.06.06-.14.14-.24.12-.04,0-.07-.04-.1-.06-.04-.03-.09-.05-.14-.06-.1-.01-.2,0-.29-.03-.15-.06-.13-.23-.04-.34.11-.14.39-.04.52.04.03.02.05.04.08.04.04,0,.06-.01.09-.03l.06-.05c.37-.55.61-.21.78-.14M74.87,8.21c-.05.02-.1.06-.15.13-.01-.02-.03-.05-.04-.08v-.03c-.05-.09-.11-.23-.28-.31-.02-.02-.05-.11-.06-.16-.01-.04-.05-.16-.16-.21-.04-.02-.1-.04-.18-.02-.15-.05-.3-.03-.44.04-.05-.03-.11-.05-.18-.05-.09,0-.16.06-.2.11v-.02c-.05-.09-.13-.14-.22-.15-.09,0-.18.04-.24.12l-.02.04s-.02.03-.03.05c-.17.07-.27.2-.35.3l-.02.03c-.04.05-.07.07-.07.07,0,0-.03-.02-.08-.08-.02-.03-.09-.12-.21-.13-.05,0-.13,0-.21.08-.06.06-.1.08-.11.08-.07-.02-.17-.3-.17-.55,0-.05,0-.2-.12-.28-.07-.05-.16-.05-.26-.02-.05-.08-.12-.13-.2-.14-.18-.03-.33.1-.44.19-.02.02-.04.03-.04.04l-.11.07c-.17.11-.34.22-.51.27,0,0,0,0-.01,0-.09-.03-.2-.06-.34.04-.03.02-.07.05-.13.09-.2.14-.36.24-.48.31-.05.03-.12,0-.14-.05-.02-.04-.05-.09-.1-.12-.14-.08-.28.02-.33.06l-.07.05c-.32.23-.64.46-1,.59,0-.02-.02-.05-.04-.08l-.11-.18-.18.11c-.16.1-.32.22-.48.33-.28.2-.55.4-.87.52,0,0,0,0,0,0-.01-.06-.01-.16-.01-.21v-.02c0-.1-.06-.19-.15-.24-.09-.04-.2-.03-.28.02-.09.07-.17.13-.25.2-.16.14-.3.26-.49.32,0-.01,0-.02-.01-.03-.02-.04-.03-.09-.05-.14-.02-.06-.1-.08-.15-.04-.04.03-.08.06-.11.09-.09.06-.17.13-.26.2-.16.12-.31.24-.47.33,0-.08-.04-.15-.11-.2-.08-.06-.19-.07-.28-.02l-.1.05c-.26.12-.54.24-.78.43,0,0,0,0,0,0,.02-.06.05-.12.08-.18,0,0,0-.01,0-.02.03-.1.07-.2.09-.3.02-.15-.13-.14-.23-.08l-.18.11s0,0,0,0c-.04.03-.09.07-.18.15-.37.31-.63.51-.78.59.02-.04.04-.08.09-.15.07-.1.05-.24-.04-.32s-.23-.09-.33,0c-.27.25-.55.42-.85.6-.15.09-.3.18-.45.28-.07.05-.15.09-.23.13.08-.24.27-.45.46-.67.67-.74,1.47-1.42,2.25-2.07.3-.25.61-.51.9-.77,1.99-1.73,4.04-3.31,6.29-4.81,1.92-1.29,3.86-1.99,5.77-2.08.61-.03,1.7,0,2.2.58.24.28.32.77.23,1.26-.23-.03-.43.3-.43.3-.12-.06-.25-.11-.39-.09-.23.03-.34.25-.28.47v.02s.02.06.03.09c0,.01-.02.02-.03.03-.01,0-.02.02-.03.02-.02.01-.03.02-.05.04-.03.03-.06.05-.09.07-.06.04-.11.09-.16.14-.24.25-.31.55-.21.89,0,.02,0,.03.01.06.11.3.07-.2.35-.33.24-.11.45-.13.61-.12-.1.08-.19.16-.28.27-.29.33-.45.78-.45,1.21-.02,0-.04,0-.05.01h0s0,0,0,0c-.37.08-.7.42-.78.8l-.02.1h.1c.17-.01.32-.1.42-.17-.12.41-.1.84.05,1.22-.27.23-.44.56-.51.9M75.35,8.02s-.03.1-.04.14c-.07.18-.16.33-.26.44-.01,0-.03.01-.04.02-.03-.38.11-.78.38-1.08-.03.14-.03.29-.04.43,0,.02,0,.03,0,.05M75.33,5.89c-.1.09-.21.16-.31.19.09-.24.31-.45.54-.54,0,0,0,0,0,0-.04.05-.07.11-.1.18-.04.06-.08.11-.13.16M75.49,6.12c.03-.1.07-.22.12-.32.02-.02.03-.05.05-.08,0,.01,0,.03.01.04.02.06.03.13.06.19.05.2.07.4.06.59-.02.25-.09.48-.18.67l-.05.07v-.02c-.15-.35-.17-.77-.06-1.15M75.51,8.02c.04-.16.05-.32.05-.47h0s.03.04.05.06c.02.07.05.13.08.19.04.08.09.16.14.24.03.08.05.16.07.24.05.25.05.5,0,.71l-.1-.02c-.18-.27-.29-.6-.3-.94M75.67,9.26c-.03.13-.04.27-.05.41-.02.07-.04.14-.06.2-.08.2-.19.37-.32.48-.03-.39.13-.81.42-1.1,0,0,0,0,0,.01M76,11.69c-.06.21-.16.38-.27.5-.07-.39.05-.82.32-1.14.03.21,0,.45-.05.63M76.16,10.86s0,0,0-.01l-.04-.05-.02-.02c-.2-.28-.32-.65-.32-1.02,0-.02,0-.04,0-.06.03-.12.05-.24.05-.37.16.22.28.48.34.74.06.29.05.57-.01.8M76.36,12.28c-.13-.31-.18-.69-.12-1.08.17.21.31.47.38.73.05.19.07.38.05.58v.04s-.02.11-.02.11c0,0,0,0,0,0,0,.03,0,.05-.01.08-.1-.1-.2-.26-.29-.46M76.52,13.26c.04-.09.09-.19.14-.27,0,.08.02.15.03.23,0,.13,0,.27-.02.39-.04.21-.12.4-.23.54-.08-.28-.05-.61.07-.89M66.97,11.92c-.13.05-.26.11-.4.18-.48.23-1.02.49-1.72.29-.51-.17-.83-.4-.98-.54l.91-.08-.23-.68c.17.11.4.27.55.32h.05c.22.09.47.17,1.16-.11.36-.15.67-.21.93-.17.32.04.55.24.77.43.15.13.31.27.43.43-.44-.22-.98-.25-1.47-.07M67.6,11.97c.35,0,.68.09.96.29.14.51-.18,1-.28,1.14-.83-.04-1.22-.3-1.37-.44.21-.15.59-.49.69-.98M67.96,15.41c-.7-.45-1-1.73-1.09-2.28.4.33,1.61.77,4.33-.06.84-.26,1.66-.39,2.46-.39h0c1.06,0,1.96.23,2.7.54-.15.37-.16.78-.03,1.12l.04.11.09-.08c.17-.15.3-.41.36-.71.13.31.34.57.6.74-.15.15-.28.38-.36.63,0,.03-.01.05-.02.08-.95-.32-2.69-.69-5.02-.24-.33.09-.64.17-.93.26h0s0,0,0,0c-.02,0-.05.01-.07.02-1.4.39-2.41.68-3.06.25M69.05,17.94c-.05,1.36-.02,2.69.09,3.98l-1.07-.7c-.2-1.28-.32-2.65-.38-4.17l1.37.9ZM69.19,22.45c.35,3.51,1.28,6.72,2.77,9.52.61,1.16,1.33,2.24,2.11,3.21-.14.18-.37.44-.68.73-.44-.45-.87-.91-1.27-1.4-.77-.92-1.46-1.92-2.03-2.97-.59-1.06-1.07-2.17-1.43-3.32-.73-2.22-1.04-4.55-1.14-6.89l1.69,1.1ZM62.95,13.94l2.89,1.89c.03,1.51.11,2.85.25,4.08l-3.29-2.15c0-1.22.05-2.5.15-3.82M65.55,36.72s-1.42-1.39-2.57-4.46c-1.05-2.79-2.1-7.59-1.19-14.64l3.46,2.26c0,.42.02.84.03,1.25.09,2.41.4,4.82,1.15,7.11.37,1.14.85,2.25,1.43,3.32.58,1.05,1.27,2.05,2.03,2.97.7.85,1.47,1.63,2.28,2.36-1.49.99-3.69,1.7-6.29.2-.17-.17-.29-.3-.35-.37M66.36,37.51c.9.43,1.75.6,2.54.6,2.71,0,4.64-2.05,5.26-2.79.76.93,1.58,1.76,2.43,2.46-4.89,3.3-8.63,1.1-10.23-.27M74.84,42.51c.34-.53,1.64-2.61,2.17-4.4.33.25.67.48,1.01.69l-.54,4.17c-.28-.14-1.11-.48-2.64-.46M76.56,42.82c.52.12.81.26.9.31,0,.01,0,.03-.03.06-.05.06-.18.16-.59.2-.21.02-.36.09-.46.17l.18-.74ZM77.89,45.04s-.08.08-.11.12l-.03-.7c.07.02.13.05.17.08.11.08.12.18.12.18h0s0,.18-.16.32M78.07,44.45c-.18-.17-.45-.2-.7-.18-.25.02-.5.08-.74.05-.09,0-.19-.03-.26-.1-.11-.11-.09-.31,0-.43.1-.12.26-.18.41-.22.15-.03.31-.04.46-.09.15-.05.3-.14.36-.28.03-.06.03-.13.04-.2l.22-1.75c.04-.29.07-.58.11-.88l.11-.88c.02-.15.04-.29.06-.44,0-.04,0-.07.01-.11,0-.02,0-.04,0-.05,0-.02.02,0,.03,0,.06.04.13.07.19.11.03.02.06.04.1.06-.14,1.79-.28,3.58-.42,5.38M80.62,45.16s-.07-.08-.11-.12c-.12-.1-.15-.21-.16-.27v-.05s.02-.1.13-.18c.04-.03.09-.06.17-.08l-.03.7ZM82.08,44.16s-.02.03-.03.04c-.08.09-.22.11-.34.12-.23,0-.47-.04-.7-.06-.23-.01-.48.02-.67.17-.13-1.71-.27-3.42-.4-5.13,0-.07-.01-.15.02-.21.05-.11.19-.16.31-.19.16,1.29.31,2.58.47,3.88.03.22.06.46.23.61.2.18.49.15.74.21.23.06.55.31.38.58M82.02,43.56c-.11-.08-.26-.15-.46-.17-.41-.04-.55-.14-.59-.2-.02-.03-.03-.05-.03-.06.09-.05.39-.2.9-.31l.18.74ZM83.57,42.51c-1.53-.03-2.36.31-2.64.46l-.54-4.17c.33-.2.66-.43,1.01-.69.53,1.79,1.83,3.88,2.17,4.41M79.2,38.72c-.87-.43-1.89-1.12-2.93-2.09.04-.1.04-.22.04-.32,0-.16,0-.31.1-.38.02-.01.04-.02.06-.03.04-.02.08-.03.11-.07.04-.04.06-.08.08-.12.01-.03.03-.05.04-.06.05-.05.13-.06.23-.07.11-.01.24-.03.34-.12.09-.09.12-.22.08-.33,0-.02-.02-.04-.04-.06,0-.01-.02-.03-.02-.03-.02-.06,0-.11.04-.17.09-.12.28-.18.42-.18.05,0,.11,0,.17.02.15.02.32.05.46-.06.05-.04.09-.09.13-.14.04-.06.08-.11.13-.12.03,0,.07,0,.12,0,.09,0,.19,0,.26-.09h0c.02-.06.04-.07.1-.06l.93.06c.06,0,.12,0,.16.03.03.02.05.05.08.08.03.04.06.08.11.11.1.07.25.07.4,0,.04-.02.08-.04.11-.06.06-.03.12-.06.19-.08.11-.04.3.03.38.14.05.06.05.12.01.17-.01.01-.02.02-.04.03-.04.02-.09.06-.1.12-.03.11.06.2.16.24h.04s.08.04.09.05c.04.1-.01.19-.11.33-.06.09-.12.19-.14.29h0s0,.02,0,.02c.02.12.14.16.19.18.07.03.25.1.28.23,0,.02,0,.04,0,.07,0,.05,0,.1.02.15.01.03.03.06.05.08.01.02.02.03.03.04.01.08.04.15.08.21-1,.91-1.97,1.56-2.81,1.96M81.81,37.77c.8-.66,1.63-1.47,2.44-2.46.61.74,2.54,2.8,5.26,2.8.78,0,1.63-.17,2.53-.6-1.62,1.37-5.36,3.55-10.23.25M95.42,32.26c-1.15,3.06-2.53,4.42-2.54,4.44-.06.07-.19.21-.37.39-2.59,1.49-4.78.79-6.27-.19.81-.73,1.58-1.51,2.27-2.35.77-.92,1.46-1.92,2.03-2.97.58-1.06,1.07-2.17,1.43-3.32.75-2.29,1.06-4.7,1.15-7.11.02-.43.03-.86.03-1.29l3.43-2.25c.91,7.06-.14,11.85-1.19,14.64M98.18,17.22l-1.02-.22.21-1.02,2.03-.44-1.21,1.68Z"/>
        <path class="cls-1" d="M85.3,13.85c.11,0,.22.02.34.03.06,0,.1.02.13.03.05.03.07.07.06.14,0,.06,0,.11-.01.17,0,.04,0,.07,0,.08v.03c.07,0,.12.01.18.02v-.02s-.03-.03-.03-.07c0-.02,0-.05,0-.09,0-.05,0-.09.01-.14,0-.06,0-.1-.02-.13-.02-.03-.05-.05-.09-.07.05-.02.09-.04.12-.08.03-.03.05-.08.06-.14.02-.12-.03-.2-.13-.26-.05-.03-.12-.05-.21-.05-.18-.02-.35-.03-.53-.04-.02.33-.05.67-.07,1.01.05,0,.1,0,.14,0,.01-.14.02-.29.03-.43M85.33,13.39c.13,0,.25.02.37.03.05,0,.09.02.12.03.06.03.08.08.07.16,0,.07-.04.11-.08.13-.04.02-.1.03-.17.02-.11-.01-.23-.02-.34-.03,0-.12.02-.23.03-.34"/>
        <path class="cls-1" d="M87,14.28c.06-.08.1-.17.12-.27.03-.13.02-.25-.04-.35-.06-.11-.17-.18-.32-.21-.15-.03-.3-.05-.45-.07-.05.33-.1.67-.15,1,.14.02.28.04.42.06.18.03.32-.02.42-.15M86.32,14.28c.04-.26.08-.51.12-.76.09.01.18.03.27.04.12.02.2.07.24.15.04.08.05.18.02.3,0,.03-.02.07-.03.1-.03.06-.06.11-.09.14-.05.04-.1.07-.16.08-.03,0-.07,0-.12,0-.08-.01-.17-.03-.25-.04"/>
        <path class="cls-1" d="M87.99,14.63c-.2-.06-.41-.11-.62-.16.03-.11.05-.22.08-.33.19.05.39.09.58.15.01-.04.02-.07.03-.11-.19-.05-.39-.1-.58-.15.02-.1.05-.2.07-.3.22.05.43.11.64.17.01-.04.02-.08.04-.12-.26-.07-.53-.14-.79-.2-.08.33-.16.65-.23.98.25.06.5.12.75.19.01-.04.02-.08.03-.12"/>
        <path class="cls-1" d="M88.26,14.84c.08-.26.17-.52.25-.78.09.31.18.63.25.95.05.02.1.04.15.05.12-.31.24-.63.37-.94-.05-.02-.09-.03-.14-.05-.1.25-.2.51-.29.77-.07-.32-.15-.63-.25-.95-.06-.02-.11-.04-.17-.05-.1.32-.21.64-.31.96.04.01.09.03.13.04"/>
        <path class="cls-1" d="M82.9,14.34s.1-.01.15-.02c-.01-.14-.03-.27-.04-.41.12-.21.25-.43.38-.64-.06,0-.12,0-.18.01-.1.17-.19.34-.28.51-.12-.15-.25-.3-.38-.44-.06,0-.12.02-.18.02.17.18.34.36.5.54.01.13.03.27.04.4"/>
        <path class="cls-1" d="M84.41,14.28c.17,0,.31-.05.41-.17.09-.1.13-.22.14-.37,0-.14-.02-.25-.09-.35-.09-.12-.24-.18-.44-.18-.19,0-.34.07-.44.19-.07.1-.11.22-.11.35,0,.15.05.28.14.37.1.1.23.15.39.15M84.15,13.45c.07-.07.17-.11.29-.11.12,0,.22.04.28.11.07.08.1.17.09.29,0,.11-.04.21-.1.3-.06.09-.15.13-.28.13-.13,0-.23-.04-.29-.11-.06-.08-.09-.17-.1-.28,0-.14.03-.25.11-.32"/>
        <path class="cls-1" d="M68.7,15.09c-.11-.29-.21-.57-.33-.86-.05.02-.1.03-.15.05.13.32.26.65.38.97.22-.08.43-.15.65-.22-.01-.04-.03-.08-.04-.12-.18.05-.35.11-.52.17"/>
        <path class="cls-1" d="M69.13,14.01c.11.33.22.66.32.99.05-.01.09-.03.14-.04-.1-.33-.2-.67-.31-1-.05.01-.1.03-.15.04"/>
        <path class="cls-1" d="M70.45,14.22s-.08-.03-.14-.04c.03-.03.06-.05.07-.08.03-.05.04-.11.02-.17-.01-.06-.04-.1-.08-.14-.07-.06-.18-.07-.31-.04-.16.04-.32.08-.49.12.1.33.2.67.29,1,.15-.04.29-.07.44-.11.14-.03.23-.09.28-.18.03-.06.04-.12.03-.19-.02-.08-.06-.14-.12-.17M69.8,14.26c-.03-.1-.06-.21-.09-.31.09-.02.18-.05.27-.07.07-.02.12-.02.15-.02.07.01.11.05.12.11.02.07,0,.12-.05.15-.03.02-.08.04-.14.06-.09.02-.18.04-.27.06M70.41,14.53c-.03.06-.08.1-.17.11-.11.03-.21.05-.31.08-.03-.12-.06-.24-.1-.35.1-.03.19-.05.29-.07.06-.01.11-.02.16-.01.08.01.12.05.14.13,0,.04,0,.08,0,.12"/>
        <path class="cls-1" d="M71.58,14.34c-.22.03-.44.06-.66.1-.02-.12-.05-.23-.07-.35.2-.04.41-.07.62-.1,0-.04-.01-.08-.02-.12-.21.03-.42.06-.62.1-.02-.1-.04-.21-.06-.31.23-.04.46-.08.69-.11,0-.04-.01-.08-.02-.13-.28.04-.56.08-.84.13.08.34.15.68.22,1.02.26-.05.53-.09.8-.13,0-.04-.01-.08-.02-.12"/>
        <path class="cls-1" d="M72.03,14.39c-.02-.15-.04-.29-.05-.44.12-.01.23-.02.35-.03.06,0,.11,0,.14,0,.05.02.08.07.09.13,0,.06.02.11.03.17,0,.04,0,.07.01.08l.02.03c.06,0,.12,0,.18,0v-.02s-.04-.03-.06-.06c0-.02-.01-.05-.02-.09,0-.05-.01-.09-.02-.14,0-.06-.02-.1-.05-.13-.03-.02-.06-.05-.11-.06.05-.03.08-.06.11-.1.02-.04.04-.09.03-.16-.01-.12-.07-.2-.19-.23-.06-.02-.14-.03-.23-.02-.18.01-.36.03-.54.05.05.34.1.69.15,1.03.05,0,.1,0,.15-.02M72.29,13.44c.06,0,.1,0,.13.01.06.02.1.07.11.15,0,.07,0,.12-.05.15-.04.03-.1.05-.17.05-.12,0-.24.02-.36.03-.02-.12-.03-.24-.05-.35.13-.01.26-.03.39-.04"/>
        <path class="cls-1" d="M73.13,13.39c.02.31.03.61.04.92.05,0,.1,0,.15,0,0-.31-.02-.61-.03-.92.13,0,.27,0,.4,0,0-.04,0-.08,0-.12-.32,0-.65,0-.97.02,0,.04,0,.08.01.12.13,0,.27-.01.4-.01"/>
        <path class="cls-1" d="M73.77,14.3c.04-.1.08-.21.12-.31.15,0,.3.01.45.02.04.11.07.21.1.32.06,0,.11,0,.17.01-.12-.36-.24-.71-.39-1.07-.06,0-.12,0-.18,0-.15.34-.3.68-.43,1.03.05,0,.1,0,.15,0M74.14,13.42c.06.16.12.31.17.47-.12,0-.24-.01-.36-.02.06-.15.13-.3.19-.45"/>
        <path class="cls-1" d="M75.66,14.23c.06-.08.09-.18.11-.29.02-.14,0-.27-.08-.37-.08-.11-.21-.18-.37-.2-.16-.02-.33-.04-.49-.05-.02.35-.04.7-.06,1.04.15.01.3.03.46.05.19.02.34-.04.44-.18M74.93,14.25c.02-.27.04-.53.06-.8.1,0,.19.02.29.03.13.02.23.06.28.14.05.08.07.18.06.31,0,.03-.01.07-.02.11-.02.06-.05.12-.08.15-.05.05-.1.08-.16.09-.03,0-.08,0-.13,0-.09-.01-.19-.02-.28-.03"/>
        <path class="cls-1" d="M80.36,32.46h-.02s0-.09,0-.09h-.15v-.26h.29v-.67h0s-.22,0-.22,0h-.06v-.2c0-.05-.02-.1-.06-.13-.04-.03-.1-.03-.14,0-.04.02-.07.07-.07.12v.2h-.24q-.08,0-.19,0h-.05v-.2c0-.05-.03-.1-.07-.12-.05-.03-.1-.02-.15,0-.04.03-.07.07-.06.12v.2h-.05c-.11,0-.19,0-.19,0h-.24v-.2c0-.05-.03-.1-.07-.12-.05-.03-.1-.02-.15,0-.04.03-.07.07-.06.12v.2h-.29v.67h.29v.26h-.19v.09h-.02s-.19-.24-.19-.24h-.72l.33.48.4.26h1.27s0,.01,0,.01h1.27s.4-.27.4-.27l.33-.48h-.72l-.19.24ZM79.84,31.59h.48v.36h-.48v-.36ZM79.92,32.11v.26h-.19v.11h-.18s0-.11,0-.11h-.12v-.26h.48ZM79.05,31.59h.05c.11,0,.17-.04.19-.06.03.02.08.06.19.06h.05v.36h-.48v-.36ZM79.16,32.11v.26h-.16v.11h-.18v-.11h-.14v-.26h.48ZM78.27,31.95v-.36h.48v.36h-.48ZM80.97,32.38l-.15.22-.33.2h-1.22s-1.22,0-1.22,0l-.33-.2-.15-.22h.34l.19.24h.26s0-.09,0-.09h.29v.1h.5s0-.1,0-.1h.24v.11h.5v-.11h.29v.1h.26s.19-.24.19-.24h.34Z"/>
        <path class="cls-1" d="M80.36,36.96h-.02s0-.09,0-.09h-.15v-.26h.29v-.67h0s-.22,0-.22,0h-.06v-.2c0-.05-.02-.1-.06-.13-.04-.03-.1-.03-.14,0-.04.02-.07.07-.07.12v.2h-.24q-.08,0-.19,0h-.05v-.2c0-.05-.03-.1-.07-.12-.05-.03-.1-.02-.15,0-.04.03-.07.07-.06.12v.2h-.05c-.11,0-.19,0-.19,0h-.24v-.2c0-.05-.03-.1-.07-.12-.05-.03-.1-.02-.15,0-.04.03-.07.07-.06.12v.2h-.29v.67h.29v.26h-.19v.09h-.02s-.19-.24-.19-.24h-.72l.33.48.4.26h1.27s0,.01,0,.01h1.27s.4-.27.4-.27l.33-.48h-.72l-.19.24ZM79.84,36.09h.48v.36h-.48v-.36ZM79.92,36.61v.26h-.19v.11h-.18s0-.11,0-.11h-.12v-.26h.48ZM79.05,36.09h.05c.11,0,.17-.04.19-.06.03.02.08.06.19.06h.05v.36h-.48v-.36ZM79.16,36.61v.26h-.16v.11h-.18v-.11h-.14v-.26h.48ZM78.27,36.45v-.36h.48v.36h-.48ZM80.97,36.88l-.15.22-.33.2h-1.22s-1.22,0-1.22,0l-.33-.2-.15-.22h.34l.19.24h.26s0-.09,0-.09h.29v.1h.5s0-.1,0-.1h.24v.11h.5v-.11h.29v.1h.26s.19-.24.19-.24h.34Z"/>
        <path class="cls-1" d="M76.66,12.66h0s0,0,0,0"/>
      </g>
    </g>
  </g>
</svg>