<?xml version="1.0" encoding="UTF-8"?>
<svg id="Capa_2" data-name="Capa 2" xmlns="http://www.w3.org/2000/svg" viewBox="0 0 29.91 22.27">
  <defs>
    <style>
      .cls-1 {
        fill: currentColor;
      }
    </style>
  </defs>
  <g id="_2-Texto" data-name="2-Texto">
    <path class="cls-1" d="M12.64,5.25l-5.37,4.47c-.99.86-.98,2.27.03,3.11l5.46,4.36c.35.25.76,1.15.77,1.55l.02,2.01c.01,1.3-1.33,1.97-2.34,1.23L.79,14.05c-.3-.25-.76-1.15-.77-1.6L0,10.24c0-.45.44-1.36.74-1.61L10.98.5c1-.76,2.36-.12,2.37,1.13l.02,2.06c0,.4-.39,1.31-.74,1.56ZM29,5.08l-5.37,4.47c-.99.86-.98,2.27.03,3.11l5.46,4.36c.35.25.76,1.15.77,1.55l.02,2.01c.01,1.3-1.33,1.97-2.34,1.23l-10.41-7.91c-.3-.25-.76-1.15-.77-1.6l-.02-2.21c0-.45.44-1.36.73-1.61L27.34.33c1-.76,2.36-.12,2.37,1.13l.02,2.06c0,.4-.39,1.31-.74,1.56Z"/>
  </g>
</svg>