<?xml version="1.0" encoding="UTF-8"?>
<svg id="Capa_2" data-name="Capa 2" xmlns="http://www.w3.org/2000/svg" viewBox="0 0 1134.09 226.16">
  <defs>
    <style>
      .cls-1 {
        fill: #f8e281;
      }

      .cls-2 {
        fill: #fff;
      }
    </style>
  </defs>
  <g id="_2-Texto" data-name="2-Texto">
    <g>
      <g>
        <path class="cls-2" d="M689.43,70.75c0,6.97-5.92,12.72-12.83,12.72h-5.57c-1.28,0-2.32,1.05-2.32,2.32v10.28c0,1.28-1.05,2.32-2.32,2.32h-1.34c-1.28,0-2.32-1.05-2.32-2.32v-35.71c0-1.28,1.04-2.32,2.32-2.32h11.55c6.97,0,12.83,5.75,12.83,12.72ZM668.7,66.16v9.17c0,1.28,1.05,2.32,2.32,2.32h5.57c3.77,0,6.85-3.14,6.85-6.91s-3.08-6.91-6.85-6.91h-5.57c-1.28,0-2.32,1.04-2.32,2.32Z"/>
        <path class="cls-2" d="M714.75,96.65l-1.68-6.45c-.23-.93-1.28-1.74-2.26-1.74h-5.86c-.99,0-2.03.81-2.26,1.74l-1.68,6.45c-.23.93-1.28,1.74-2.26,1.74h-1.45c-1.63,0-2.67-1.39-2.21-2.9l9.64-35.65c.23-.93,1.28-1.74,2.26-1.74h1.86c.99,0,2.03.81,2.26,1.74l9.64,35.65c.46,1.51-.58,2.9-2.21,2.9h-1.51c-.99,0-2.03-.81-2.26-1.74ZM707.72,82.65h1.22c1.1,0,1.8-1.05,1.57-2.15-.7-2.61-1.34-5.23-2.03-7.84-.17-.58-.99-.7-1.1-.12l-1.92,7.2c-.41,1.57.64,2.9,2.26,2.9Z"/>
        <path class="cls-2" d="M739.54,98.39c-6.27,0-12.02-4.47-13.12-10.57-.23-1.51.64-2.09,2.15-2.09h1.74c.7,0,1.97,1.22,2.21,1.92.93,2.9,3.89,4.88,7.03,4.88s7.43-1.97,7.43-5.69-4.65-5.23-7.61-5.69c-6.1-1.05-13.12-4.35-13.12-11.5s6.79-11.61,13.3-11.61,12.14,4.47,13.24,10.57c.23,1.51-.64,2.09-2.15,2.09h-1.68c-.75,0-2.03-1.28-2.26-1.97-.99-2.9-4.01-4.88-7.14-4.88s-7.32,2.09-7.32,5.81,4.53,5.17,7.43,5.69c6.04,1.05,13.3,4.3,13.3,11.5s-6.97,11.56-13.41,11.56Z"/>
        <path class="cls-2" d="M778.27,96.65l-1.68-6.45c-.23-.93-1.28-1.74-2.26-1.74h-5.86c-.99,0-2.03.81-2.26,1.74l-1.68,6.45c-.23.93-1.28,1.74-2.26,1.74h-1.45c-1.63,0-2.67-1.39-2.21-2.9l9.64-35.65c.23-.93,1.28-1.74,2.26-1.74h1.86c.99,0,2.03.81,2.26,1.74l9.64,35.65c.46,1.51-.58,2.9-2.21,2.9h-1.51c-.99,0-2.03-.81-2.26-1.74ZM771.24,82.65h1.22c1.1,0,1.8-1.05,1.57-2.15-.7-2.61-1.34-5.23-2.03-7.84-.17-.58-.99-.7-1.1-.12l-1.92,7.2c-.41,1.57.64,2.9,2.26,2.9Z"/>
        <path class="cls-2" d="M823.85,58.03h22.06c1.28,0,2.32,1.05,2.32,2.32v1.16c0,1.28-1.05,2.32-2.32,2.32h-16.08c-1.28,0-2.32,1.04-2.32,2.32v6.85c0,1.28,1.05,2.32,2.32,2.32h6.04c1.28,0,2.32,1.05,2.32,2.32v1.1c0,1.28-1.05,2.32-2.32,2.32h-6.04c-1.28,0-2.32,1.05-2.32,2.32v6.85c0,1.28,1.05,2.32,2.32,2.32h16.08c1.28,0,2.32,1.05,2.32,2.32v1.16c0,1.28-1.05,2.32-2.32,2.32h-22.06c-1.28,0-2.32-1.05-2.32-2.32v-35.71c0-1.28,1.04-2.32,2.32-2.32Z"/>
        <path class="cls-2" d="M880,60.35v35.71c0,1.28-1.05,2.32-2.32,2.32h-1.86c-.7,0-1.74-.64-2.03-1.22l-10.16-18.7c-1.16-2.15-4.35-1.34-4.35,1.1v16.49c0,1.28-1.05,2.32-2.32,2.32h-1.34c-1.28,0-2.32-1.05-2.32-2.32v-35.71c0-1.28,1.04-2.32,2.32-2.32h1.86c.7,0,1.74.64,2.03,1.22l10.16,18.52c1.16,2.09,4.35,1.28,4.35-1.1v-16.32c0-1.28,1.05-2.32,2.32-2.32h1.34c1.28,0,2.32,1.05,2.32,2.32Z"/>
        <path class="cls-2" d="M665.04,127.71h1.34c1.28,0,2.32,1.05,2.32,2.32v29.9c0,1.28,1.05,2.32,2.32,2.32h16.08c1.28,0,2.32,1.05,2.32,2.32v1.16c0,1.28-1.04,2.32-2.32,2.32h-22.06c-1.28,0-2.32-1.05-2.32-2.32v-35.71c0-1.28,1.04-2.32,2.32-2.32Z"/>
        <path class="cls-2" d="M707.72,168.12c-7.03,0-13.24-5.69-13.24-12.83v-14.75c0-7.14,6.21-12.83,13.24-12.83s13.47,5.63,13.47,12.83v14.75c0,7.2-6.45,12.83-13.47,12.83ZM707.72,133.52c-3.83,0-7.26,3.14-7.26,7.03v14.75c0,3.89,3.43,7.03,7.26,7.03s7.49-3.08,7.49-7.03v-14.75c0-3.95-3.66-7.03-7.49-7.03Z"/>
        <path class="cls-2" d="M739.54,168.07c-6.27,0-12.02-4.47-13.12-10.57-.23-1.51.64-2.09,2.15-2.09h1.74c.7,0,1.97,1.22,2.21,1.92.93,2.9,3.89,4.88,7.03,4.88s7.43-1.97,7.43-5.69-4.65-5.23-7.61-5.69c-6.1-1.05-13.12-4.35-13.12-11.5s6.79-11.61,13.3-11.61,12.14,4.47,13.24,10.57c.23,1.51-.64,2.09-2.15,2.09h-1.68c-.75,0-2.03-1.28-2.26-1.97-.99-2.9-4.01-4.88-7.14-4.88s-7.32,2.09-7.32,5.81,4.53,5.17,7.43,5.69c6.04,1.05,13.3,4.3,13.3,11.5s-6.97,11.56-13.41,11.56Z"/>
        <path class="cls-2" d="M792.09,127.71h22.06c1.28,0,2.32,1.05,2.32,2.32v1.16c0,1.28-1.04,2.32-2.32,2.32h-5.81c-1.28,0-2.32,1.04-2.32,2.32v29.9c0,1.28-1.04,2.32-2.32,2.32h-1.22c-1.28,0-2.32-1.05-2.32-2.32v-29.9c0-1.28-1.05-2.32-2.32-2.32h-5.75c-1.28,0-2.32-1.05-2.32-2.32v-1.16c0-1.28,1.04-2.32,2.32-2.32Z"/>
        <path class="cls-2" d="M823.85,127.71h22.06c1.28,0,2.32,1.05,2.32,2.32v1.16c0,1.28-1.05,2.32-2.32,2.32h-16.08c-1.28,0-2.32,1.04-2.32,2.32v6.85c0,1.28,1.05,2.32,2.32,2.32h6.04c1.28,0,2.32,1.05,2.32,2.32v1.1c0,1.28-1.05,2.32-2.32,2.32h-6.04c-1.28,0-2.32,1.05-2.32,2.32v6.85c0,1.28,1.05,2.32,2.32,2.32h16.08c1.28,0,2.32,1.05,2.32,2.32v1.16c0,1.28-1.05,2.32-2.32,2.32h-22.06c-1.28,0-2.32-1.05-2.32-2.32v-35.71c0-1.28,1.04-2.32,2.32-2.32Z"/>
        <path class="cls-2" d="M880,140.43c0,4.24-2.09,8.13-5.52,10.45-.93.64-1.63,2.55-1.1,3.54l5.81,10.63c.76,1.45-.12,3.02-1.8,3.02h-2.03c-.7,0-1.74-.64-2.03-1.22l-6.79-12.48c-.29-.58-1.34-1.22-2.03-1.22h-2.9c-1.28,0-2.32,1.05-2.32,2.32v10.28c0,1.28-1.05,2.32-2.32,2.32h-1.34c-1.28,0-2.32-1.05-2.32-2.32v-35.71c0-1.28,1.04-2.32,2.32-2.32h11.55c6.97,0,12.83,5.75,12.83,12.72ZM859.27,135.84v9.17c0,1.28,1.05,2.32,2.32,2.32h5.57c3.77,0,6.85-3.14,6.85-6.91s-3.08-6.91-6.85-6.91h-5.57c-1.28,0-2.32,1.04-2.32,2.32Z"/>
        <path class="cls-2" d="M911.76,140.43c0,4.24-2.09,8.13-5.52,10.45-.93.64-1.63,2.55-1.1,3.54l5.81,10.63c.76,1.45-.12,3.02-1.8,3.02h-2.03c-.7,0-1.74-.64-2.03-1.22l-6.79-12.48c-.29-.58-1.34-1.22-2.03-1.22h-2.9c-1.28,0-2.32,1.05-2.32,2.32v10.28c0,1.28-1.05,2.32-2.32,2.32h-1.34c-1.28,0-2.32-1.05-2.32-2.32v-35.71c0-1.28,1.04-2.32,2.32-2.32h11.55c6.97,0,12.83,5.75,12.83,12.72ZM891.03,135.84v9.17c0,1.28,1.05,2.32,2.32,2.32h5.57c3.77,0,6.85-3.14,6.85-6.91s-3.08-6.91-6.85-6.91h-5.57c-1.28,0-2.32,1.04-2.32,2.32Z"/>
        <path class="cls-2" d="M919.13,127.71h22.06c1.28,0,2.32,1.05,2.32,2.32v1.16c0,1.28-1.04,2.32-2.32,2.32h-5.81c-1.28,0-2.32,1.04-2.32,2.32v24.1c0,1.28,1.05,2.32,2.32,2.32h5.81c1.28,0,2.32,1.05,2.32,2.32v1.16c0,1.28-1.04,2.32-2.32,2.32h-22.06c-1.28,0-2.32-1.05-2.32-2.32v-1.16c0-1.28,1.04-2.32,2.32-2.32h5.75c1.28,0,2.32-1.04,2.32-2.32v-24.1c0-1.28-1.05-2.32-2.32-2.32h-5.75c-1.28,0-2.32-1.05-2.32-2.32v-1.16c0-1.28,1.04-2.32,2.32-2.32Z"/>
        <path class="cls-2" d="M950.9,127.71h22.06c1.28,0,2.32,1.05,2.32,2.32v1.16c0,1.28-1.05,2.32-2.32,2.32h-5.81c-1.28,0-2.32,1.04-2.32,2.32v29.9c0,1.28-1.04,2.32-2.32,2.32h-1.22c-1.28,0-2.32-1.05-2.32-2.32v-29.9c0-1.28-1.05-2.32-2.32-2.32h-5.75c-1.28,0-2.32-1.05-2.32-2.32v-1.16c0-1.28,1.04-2.32,2.32-2.32Z"/>
        <path class="cls-2" d="M993.57,168.12c-7.03,0-13.24-5.69-13.24-12.83v-14.75c0-7.14,6.21-12.83,13.24-12.83s13.47,5.63,13.47,12.83v14.75c0,7.2-6.45,12.83-13.47,12.83ZM993.57,133.52c-3.83,0-7.26,3.14-7.26,7.03v14.75c0,3.89,3.43,7.03,7.26,7.03s7.49-3.08,7.49-7.03v-14.75c0-3.95-3.66-7.03-7.49-7.03Z"/>
        <path class="cls-2" d="M1038.81,140.43c0,4.24-2.09,8.13-5.52,10.45-.93.64-1.63,2.55-1.1,3.54l5.81,10.63c.76,1.45-.12,3.02-1.8,3.02h-2.03c-.7,0-1.74-.64-2.03-1.22l-6.79-12.48c-.29-.58-1.34-1.22-2.03-1.22h-2.9c-1.28,0-2.32,1.05-2.32,2.32v10.28c0,1.28-1.05,2.32-2.32,2.32h-1.34c-1.28,0-2.32-1.05-2.32-2.32v-35.71c0-1.28,1.04-2.32,2.32-2.32h11.55c6.97,0,12.83,5.75,12.83,12.72ZM1018.08,135.84v9.17c0,1.28,1.05,2.32,2.32,2.32h5.57c3.77,0,6.85-3.14,6.85-6.91s-3.08-6.91-6.85-6.91h-5.57c-1.28,0-2.32,1.04-2.32,2.32Z"/>
        <path class="cls-2" d="M1046.18,127.71h22.06c1.28,0,2.32,1.05,2.32,2.32v1.16c0,1.28-1.04,2.32-2.32,2.32h-5.81c-1.28,0-2.32,1.04-2.32,2.32v24.1c0,1.28,1.05,2.32,2.32,2.32h5.81c1.28,0,2.32,1.05,2.32,2.32v1.16c0,1.28-1.04,2.32-2.32,2.32h-22.06c-1.28,0-2.32-1.05-2.32-2.32v-1.16c0-1.28,1.04-2.32,2.32-2.32h5.75c1.28,0,2.32-1.04,2.32-2.32v-24.1c0-1.28-1.05-2.32-2.32-2.32h-5.75c-1.28,0-2.32-1.05-2.32-2.32v-1.16c0-1.28,1.04-2.32,2.32-2.32Z"/>
        <path class="cls-2" d="M1088.86,168.12c-7.03,0-13.24-5.69-13.24-12.83v-14.75c0-7.14,6.21-12.83,13.24-12.83s13.47,5.63,13.47,12.83v14.75c0,7.2-6.45,12.83-13.47,12.83ZM1088.86,133.52c-3.83,0-7.26,3.14-7.26,7.03v14.75c0,3.89,3.43,7.03,7.26,7.03s7.49-3.08,7.49-7.03v-14.75c0-3.95-3.66-7.03-7.49-7.03Z"/>
        <path class="cls-2" d="M1120.68,168.07c-6.27,0-12.02-4.47-13.12-10.57-.23-1.51.64-2.09,2.15-2.09h1.74c.7,0,1.97,1.22,2.21,1.92.93,2.9,3.89,4.88,7.03,4.88s7.43-1.97,7.43-5.69-4.65-5.23-7.61-5.69c-6.1-1.05-13.12-4.35-13.12-11.5s6.79-11.61,13.3-11.61,12.14,4.47,13.24,10.57c.23,1.51-.64,2.09-2.15,2.09h-1.68c-.75,0-2.03-1.28-2.26-1.97-.99-2.9-4.01-4.88-7.14-4.88s-7.32,2.09-7.32,5.81,4.53,5.17,7.43,5.69c6.04,1.05,13.3,4.3,13.3,11.5s-6.97,11.56-13.41,11.56Z"/>
      </g>
      <g>
        <g>
          <g>
            <path class="cls-2" d="M177.55,26.75h2.19c2.1,0,3.82,1.72,3.82,3.82v49.13c0,2.1,1.72,3.82,3.82,3.82h26.42c2.1,0,3.82,1.72,3.82,3.82v1.91c0,2.1-1.72,3.82-3.82,3.82h-36.25c-2.1,0-3.82-1.72-3.82-3.82V30.57c0-2.1,1.72-3.82,3.82-3.82Z"/>
            <path class="cls-2" d="M259.21,90.19l-2.77-10.59c-.38-1.53-2.1-2.86-3.72-2.86h-9.63c-1.62,0-3.34,1.34-3.72,2.86l-2.77,10.59c-.38,1.53-2.1,2.86-3.72,2.86h-2.38c-2.67,0-4.39-2.29-3.63-4.77l15.84-58.57c.38-1.53,2.1-2.86,3.72-2.86h3.05c1.62,0,3.34,1.34,3.72,2.86l15.84,58.57c.76,2.48-.95,4.77-3.63,4.77h-2.48c-1.62,0-3.34-1.34-3.72-2.86ZM247.66,67.2h2c1.81,0,2.96-1.72,2.58-3.53-1.14-4.29-2.19-8.59-3.34-12.88-.29-.95-1.62-1.14-1.81-.19l-3.15,11.83c-.67,2.58,1.05,4.77,3.72,4.77Z"/>
            <path class="cls-2" d="M374.16,47.65c0,11.45-9.73,20.89-21.08,20.89h-9.16c-2.1,0-3.82,1.72-3.82,3.82v16.89c0,2.1-1.72,3.82-3.82,3.82h-2.19c-2.1,0-3.82-1.72-3.82-3.82V30.57c0-2.1,1.72-3.82,3.82-3.82h18.98c11.45,0,21.08,9.44,21.08,20.89ZM340.1,40.11v15.07c0,2.1,1.72,3.82,3.82,3.82h9.16c6.2,0,11.26-5.15,11.26-11.35s-5.06-11.35-11.26-11.35h-9.16c-2.1,0-3.82,1.72-3.82,3.82Z"/>
            <path class="cls-2" d="M415.75,90.19l-2.77-10.59c-.38-1.53-2.1-2.86-3.72-2.86h-9.64c-1.62,0-3.34,1.34-3.72,2.86l-2.77,10.59c-.38,1.53-2.1,2.86-3.72,2.86h-2.38c-2.67,0-4.39-2.29-3.62-4.77l15.84-58.57c.38-1.53,2.1-2.86,3.72-2.86h3.05c1.62,0,3.34,1.34,3.72,2.86l15.84,58.57c.76,2.48-.95,4.77-3.62,4.77h-2.48c-1.62,0-3.34-1.34-3.72-2.86ZM404.21,67.2h2c1.81,0,2.96-1.72,2.58-3.53-1.14-4.29-2.19-8.59-3.34-12.88-.29-.95-1.62-1.14-1.81-.19l-3.15,11.83c-.67,2.58,1.05,4.77,3.72,4.77Z"/>
            <path class="cls-2" d="M477.86,36.01l-27.19,41.59c-1.72,2.77,0,5.91,3.24,5.91h20.8c2.1,0,3.82,1.72,3.82,3.82v1.91c0,2.1-1.72,3.82-3.82,3.82h-36.25c-2.1,0-3.82-1.72-3.82-3.82v-3.34c0-.38.48-1.81.67-2.1l27.19-41.59c1.72-2.77,0-5.91-3.24-5.91h-20.8c-2.1,0-3.82-1.72-3.82-3.82v-1.91c0-2.1,1.72-3.82,3.82-3.82h36.25c2.1,0,3.82,1.72,3.82,3.82v3.34c0,.38-.48,1.81-.67,2.1Z"/>
          </g>
          <g>
            <path class="cls-2" d="M195.58,199.4c-10.3,0-19.75-7.35-21.56-17.36-.38-2.48,1.05-3.43,3.53-3.43h2.86c1.14,0,3.24,2,3.62,3.15,1.53,4.77,6.39,8.01,11.54,8.01s12.21-3.24,12.21-9.35-7.63-8.59-12.5-9.35c-10.02-1.72-21.56-7.15-21.56-18.89s11.16-19.08,21.85-19.08,19.94,7.35,21.75,17.36c.38,2.48-1.05,3.43-3.53,3.43h-2.77c-1.24,0-3.34-2.1-3.72-3.24-1.62-4.77-6.58-8.01-11.73-8.01s-12.02,3.43-12.02,9.54,7.44,8.49,12.21,9.35c9.92,1.72,21.85,7.06,21.85,18.89s-11.45,18.98-22.04,18.98Z"/>
            <path class="cls-2" d="M229.73,133.1h36.25c2.1,0,3.82,1.72,3.82,3.82v1.91c0,2.1-1.72,3.82-3.82,3.82h-9.54c-2.1,0-3.82,1.72-3.82,3.82v39.59c0,2.1,1.72,3.82,3.82,3.82h9.54c2.1,0,3.82,1.72,3.82,3.82v1.91c0,2.1-1.72,3.82-3.82,3.82h-36.25c-2.1,0-3.82-1.72-3.82-3.82v-1.91c0-2.1,1.72-3.82,3.82-3.82h9.44c2.1,0,3.82-1.72,3.82-3.82v-39.59c0-2.1-1.72-3.82-3.82-3.82h-9.44c-2.1,0-3.82-1.72-3.82-3.82v-1.91c0-2.1,1.72-3.82,3.82-3.82ZM237.84,123.09l13.07-12.97c1.43-1.43,3.91-1.43,5.34,0l1.62,1.62c1.43,1.43,1.43,3.91,0,5.34l-13.07,12.97c-1.43,1.43-3.91,1.43-5.34,0l-1.62-1.62c-1.43-1.43-1.43-3.91,0-5.34Z"/>
            <path class="cls-2" d="M374.16,153.99c0,11.45-9.73,20.89-21.08,20.89h-9.16c-2.1,0-3.82,1.72-3.82,3.82v16.89c0,2.1-1.72,3.82-3.82,3.82h-2.19c-2.1,0-3.82-1.72-3.82-3.82v-58.67c0-2.1,1.72-3.82,3.82-3.82h18.98c11.45,0,21.08,9.44,21.08,20.89ZM340.1,146.46v15.07c0,2.1,1.72,3.82,3.82,3.82h9.16c6.2,0,11.26-5.15,11.26-11.35s-5.06-11.35-11.26-11.35h-9.16c-2.1,0-3.82,1.72-3.82,3.82Z"/>
            <path class="cls-2" d="M415.75,196.54l-2.77-10.59c-.38-1.53-2.1-2.86-3.72-2.86h-9.64c-1.62,0-3.34,1.34-3.72,2.86l-2.77,10.59c-.38,1.53-2.1,2.86-3.72,2.86h-2.38c-2.67,0-4.39-2.29-3.62-4.77l15.84-58.57c.38-1.53,2.1-2.86,3.72-2.86h3.05c1.62,0,3.34,1.34,3.72,2.86l15.84,58.57c.76,2.48-.95,4.77-3.62,4.77h-2.48c-1.62,0-3.34-1.34-3.72-2.86ZM404.21,173.55h2c1.81,0,2.96-1.72,2.58-3.53-1.14-4.29-2.19-8.59-3.34-12.88-.29-.95-1.62-1.14-1.81-.19l-3.15,11.83c-.67,2.58,1.05,4.77,3.72,4.77Z"/>
            <path class="cls-2" d="M456.49,199.4c-10.3,0-19.75-7.35-21.56-17.36-.38-2.48,1.05-3.43,3.53-3.43h2.86c1.14,0,3.24,2,3.63,3.15,1.53,4.77,6.39,8.01,11.54,8.01s12.21-3.24,12.21-9.35-7.63-8.59-12.5-9.35c-10.02-1.72-21.56-7.15-21.56-18.89s11.16-19.08,21.85-19.08,19.94,7.35,21.75,17.36c.38,2.48-1.05,3.43-3.53,3.43h-2.77c-1.24,0-3.34-2.1-3.72-3.24-1.62-4.77-6.58-8.01-11.73-8.01s-12.02,3.43-12.02,9.54,7.44,8.49,12.21,9.35c9.92,1.72,21.85,7.06,21.85,18.89s-11.45,18.98-22.04,18.98Z"/>
            <path class="cls-2" d="M520.12,196.54l-2.77-10.59c-.38-1.53-2.1-2.86-3.72-2.86h-9.64c-1.62,0-3.34,1.34-3.72,2.86l-2.77,10.59c-.38,1.53-2.1,2.86-3.72,2.86h-2.38c-2.67,0-4.39-2.29-3.62-4.77l15.84-58.57c.38-1.53,2.1-2.86,3.72-2.86h3.05c1.62,0,3.34,1.34,3.72,2.86l15.84,58.57c.76,2.48-.95,4.77-3.62,4.77h-2.48c-1.62,0-3.34-1.34-3.72-2.86ZM508.57,173.55h2c1.81,0,2.96-1.72,2.58-3.53-1.14-4.29-2.19-8.59-3.34-12.88-.29-.95-1.62-1.14-1.81-.19l-3.15,11.83c-.67,2.58,1.05,4.77,3.72,4.77Z"/>
          </g>
        </g>
        <path class="cls-1" d="M40.18,113.08L.79,133.96c-1.3.69-.91,2.65.56,2.79l44.38,4.22-28.4,34.37c-.94,1.14.17,2.8,1.58,2.37l42.62-13.08-13.08,42.62c-.43,1.41,1.23,2.52,2.37,1.58l34.37-28.4,4.22,44.38c.14,1.47,2.1,1.86,2.79.56l13.96-26.32c4.55-8.58,6.93-18.14,6.93-27.85V54.97c0-9.71-2.38-19.27-6.93-27.85L92.2.79c-.69-1.3-2.65-.91-2.79.56l-4.22,44.38-34.37-28.4c-1.14-.94-2.8.17-2.37,1.58l13.08,42.62-42.62-13.08c-1.41-.43-2.52,1.23-1.58,2.37l28.4,34.37L1.35,89.4c-1.47.14-1.86,2.1-.56,2.79l39.39,20.88Z"/>
      </g>
      <rect class="cls-2" x="590.61" y="10.39" width="9.54" height="205.38" rx="3.3" ry="3.3" transform="translate(1190.76 226.16) rotate(180)"/>
    </g>
  </g>
</svg>